<?xml version="1.0" encoding="utf-8"?>
<!-- Generator: Adobe Illustrator 28.1.0, SVG Export Plug-In . SVG Version: 6.00 Build 0)  -->
<svg version="1.1" id="Layer_1" xmlns="http://www.w3.org/2000/svg" xmlns:xlink="http://www.w3.org/1999/xlink" x="0px" y="0px"
	 viewBox="0 0 40 40" style="enable-background:new 0 0 40 40;" xml:space="preserve">
<style type="text/css">
	.st0{fill:#191B1C;}
</style>
<g>
	<g>
		<g>
			<g>
				<g>
					<g>
						<path class="st0" d="M7.12,28.23v3.64H6.68V28.7H6.66l-0.89,0.59v-0.45l0.91-0.6L7.12,28.23L7.12,28.23z"/>
					</g>
				</g>
			</g>
		</g>
		<g>
			<g>
				<g>
					<g>
						<path class="st0" d="M9.35,31.92c-0.27,0-0.5-0.07-0.68-0.22c-0.19-0.15-0.33-0.36-0.43-0.64c-0.1-0.28-0.15-0.62-0.15-1.01
							s0.05-0.73,0.15-1.01s0.24-0.49,0.43-0.64c0.19-0.15,0.42-0.22,0.68-0.22s0.49,0.07,0.68,0.22c0.19,0.15,0.33,0.36,0.43,0.64
							s0.15,0.61,0.15,1.01s-0.05,0.73-0.15,1.01c-0.1,0.28-0.24,0.49-0.43,0.64C9.85,31.84,9.62,31.92,9.35,31.92z M9.35,31.53
							c0.27,0,0.47-0.13,0.62-0.38c0.15-0.26,0.22-0.62,0.22-1.09c0-0.31-0.03-0.58-0.1-0.8s-0.16-0.39-0.29-0.51
							c-0.12-0.12-0.27-0.17-0.45-0.17c-0.26,0-0.47,0.13-0.62,0.39s-0.22,0.62-0.22,1.1c0,0.31,0.03,0.58,0.1,0.8
							s0.16,0.39,0.29,0.5C9.02,31.47,9.17,31.53,9.35,31.53z"/>
					</g>
				</g>
			</g>
		</g>
		<g>
			<g>
				<g>
					<g>
						<path class="st0" d="M12.48,31.92c-0.27,0-0.5-0.07-0.68-0.22c-0.19-0.15-0.33-0.36-0.43-0.64c-0.1-0.28-0.15-0.62-0.15-1.01
							s0.05-0.73,0.15-1.01s0.24-0.49,0.43-0.64c0.19-0.15,0.42-0.22,0.68-0.22s0.49,0.07,0.68,0.22c0.19,0.15,0.33,0.36,0.43,0.64
							s0.15,0.61,0.15,1.01s-0.05,0.73-0.15,1.01c-0.1,0.28-0.24,0.49-0.43,0.64C12.97,31.84,12.74,31.92,12.48,31.92z M12.48,31.53
							c0.27,0,0.47-0.13,0.62-0.38c0.15-0.26,0.22-0.62,0.22-1.09c0-0.31-0.03-0.58-0.1-0.8s-0.16-0.39-0.29-0.51
							c-0.12-0.12-0.27-0.17-0.45-0.17c-0.26,0-0.47,0.13-0.62,0.39s-0.22,0.62-0.22,1.1c0,0.31,0.03,0.58,0.1,0.8
							s0.16,0.39,0.29,0.5C12.15,31.47,12.3,31.53,12.48,31.53z"/>
					</g>
				</g>
			</g>
		</g>
		<g>
			<g>
				<g>
					<g>
						<path class="st0" d="M15.6,31.92c-0.27,0-0.5-0.07-0.68-0.22c-0.19-0.15-0.33-0.36-0.43-0.64c-0.1-0.28-0.15-0.62-0.15-1.01
							s0.05-0.73,0.15-1.01s0.24-0.49,0.43-0.64c0.19-0.15,0.42-0.22,0.68-0.22s0.49,0.07,0.68,0.22s0.33,0.36,0.43,0.64
							s0.15,0.61,0.15,1.01s-0.05,0.73-0.15,1.01s-0.24,0.49-0.43,0.64C16.1,31.84,15.87,31.92,15.6,31.92z M15.6,31.53
							c0.27,0,0.47-0.13,0.62-0.38c0.15-0.26,0.22-0.62,0.22-1.09c0-0.31-0.03-0.58-0.1-0.8s-0.16-0.39-0.29-0.51
							c-0.12-0.12-0.27-0.17-0.45-0.17c-0.26,0-0.47,0.13-0.62,0.39s-0.22,0.62-0.22,1.1c0,0.31,0.03,0.58,0.1,0.8
							s0.16,0.39,0.29,0.5C15.27,31.47,15.42,31.53,15.6,31.53z"/>
					</g>
				</g>
			</g>
		</g>
		<g>
			<g>
				<g>
					<g>
						<path class="st0" d="M18.95,31.87v-2.73h0.41v0.41h0.03c0.05-0.13,0.14-0.24,0.27-0.33c0.13-0.08,0.28-0.13,0.44-0.13
							c0.03,0,0.07,0,0.12,0c0.05,0,0.08,0,0.1,0.01v0.43c-0.01,0-0.05-0.01-0.1-0.02s-0.1-0.01-0.16-0.01
							c-0.13,0-0.25,0.03-0.35,0.08c-0.1,0.06-0.19,0.13-0.25,0.23s-0.09,0.21-0.09,0.33v1.73H18.95z"/>
					</g>
				</g>
			</g>
		</g>
		<g>
			<g>
				<g>
					<g>
						<path class="st0" d="M21.96,31.92c-0.26,0-0.49-0.06-0.68-0.17s-0.34-0.28-0.44-0.49s-0.15-0.46-0.15-0.73
							s0.05-0.53,0.15-0.74s0.25-0.38,0.43-0.5s0.4-0.18,0.65-0.18c0.14,0,0.28,0.02,0.42,0.07s0.26,0.12,0.38,0.23
							c0.11,0.11,0.2,0.25,0.27,0.42s0.1,0.39,0.1,0.64v0.18h-2.1v-0.36h1.68c0-0.15-0.03-0.29-0.09-0.41
							c-0.06-0.12-0.15-0.22-0.26-0.29s-0.24-0.1-0.4-0.1c-0.17,0-0.31,0.04-0.43,0.12s-0.21,0.19-0.28,0.32
							c-0.07,0.13-0.1,0.27-0.1,0.42v0.24c0,0.21,0.04,0.38,0.11,0.52c0.07,0.14,0.17,0.25,0.3,0.32s0.28,0.11,0.45,0.11
							c0.11,0,0.21-0.02,0.3-0.05s0.17-0.08,0.23-0.14s0.12-0.14,0.15-0.24l0.4,0.11c-0.04,0.14-0.11,0.26-0.21,0.36
							c-0.1,0.1-0.23,0.18-0.37,0.24S22.14,31.92,21.96,31.92z"/>
					</g>
				</g>
			</g>
		</g>
		<g>
			<g>
				<g>
					<g>
						<path class="st0" d="M25.66,29.75l-0.38,0.11c-0.02-0.06-0.06-0.12-0.1-0.18c-0.05-0.06-0.11-0.11-0.19-0.15
							s-0.18-0.06-0.3-0.06c-0.17,0-0.31,0.04-0.42,0.11c-0.11,0.08-0.17,0.17-0.17,0.29c0,0.1,0.04,0.19,0.11,0.25
							c0.08,0.06,0.19,0.11,0.35,0.15l0.4,0.1c0.24,0.06,0.43,0.15,0.54,0.27c0.12,0.12,0.18,0.28,0.18,0.47
							c0,0.16-0.04,0.3-0.13,0.42s-0.21,0.22-0.37,0.29c-0.16,0.07-0.35,0.11-0.56,0.11c-0.28,0-0.51-0.06-0.69-0.18
							s-0.3-0.3-0.35-0.53l0.4-0.1c0.04,0.15,0.11,0.26,0.22,0.33c0.11,0.07,0.24,0.11,0.42,0.11c0.2,0,0.35-0.04,0.47-0.12
							c0.12-0.08,0.17-0.18,0.17-0.3c0-0.09-0.03-0.17-0.1-0.24c-0.07-0.06-0.17-0.11-0.31-0.14l-0.45-0.11
							c-0.25-0.06-0.43-0.15-0.55-0.28s-0.17-0.28-0.17-0.47c0-0.15,0.04-0.29,0.13-0.41s0.21-0.21,0.36-0.28s0.32-0.1,0.51-0.1
							c0.27,0,0.48,0.06,0.64,0.18C25.48,29.4,25.59,29.56,25.66,29.75z"/>
					</g>
				</g>
			</g>
		</g>
		<g>
			<g>
				<g>
					<g>
						<path class="st0" d="M28.06,30.75v-1.61h0.42v2.73h-0.42v-0.46h-0.03c-0.06,0.14-0.16,0.26-0.3,0.35
							c-0.13,0.1-0.31,0.15-0.51,0.15c-0.17,0-0.32-0.04-0.45-0.11c-0.13-0.08-0.24-0.19-0.31-0.34c-0.08-0.15-0.11-0.34-0.11-0.58
							v-1.73h0.42v1.7c0,0.2,0.06,0.36,0.17,0.48s0.25,0.18,0.43,0.18c0.1,0,0.21-0.03,0.32-0.08s0.2-0.13,0.27-0.25
							C28.02,31.06,28.06,30.92,28.06,30.75z"/>
					</g>
				</g>
			</g>
		</g>
		<g>
			<g>
				<g>
					<g>
						<path class="st0" d="M29.66,28.23v3.64h-0.42v-3.64H29.66z"/>
					</g>
				</g>
			</g>
		</g>
		<g>
			<g>
				<g>
					<g>
						<path class="st0" d="M31.62,29.14v0.35H30.2v-0.35H31.62z M30.61,28.49h0.42v2.6c0,0.12,0.02,0.21,0.05,0.27
							c0.04,0.06,0.08,0.1,0.13,0.12c0.06,0.02,0.11,0.03,0.18,0.03c0.05,0,0.08,0,0.11-0.01s0.05-0.01,0.07-0.01l0.08,0.38
							c-0.03,0.01-0.07,0.02-0.12,0.03c-0.05,0.01-0.12,0.02-0.19,0.02c-0.12,0-0.23-0.03-0.35-0.08c-0.11-0.05-0.21-0.13-0.28-0.23
							c-0.07-0.1-0.11-0.24-0.11-0.39v-2.73H30.61z"/>
					</g>
				</g>
			</g>
		</g>
		<g>
			<g>
				<g>
					<g>
						<path class="st0" d="M34.18,29.75l-0.38,0.11c-0.02-0.06-0.06-0.12-0.1-0.18c-0.05-0.06-0.11-0.11-0.19-0.15
							s-0.18-0.06-0.3-0.06c-0.17,0-0.31,0.04-0.42,0.11c-0.11,0.08-0.17,0.17-0.17,0.29c0,0.1,0.04,0.19,0.11,0.25
							c0.08,0.06,0.19,0.11,0.35,0.15l0.4,0.1c0.24,0.06,0.43,0.15,0.54,0.27c0.12,0.12,0.18,0.28,0.18,0.47
							c0,0.16-0.04,0.3-0.13,0.42s-0.21,0.22-0.37,0.29c-0.16,0.07-0.35,0.11-0.56,0.11c-0.28,0-0.51-0.06-0.69-0.18
							s-0.3-0.3-0.35-0.53l0.4-0.1c0.04,0.15,0.11,0.26,0.22,0.33s0.24,0.11,0.42,0.11c0.2,0,0.35-0.04,0.47-0.12
							c0.12-0.08,0.17-0.18,0.17-0.3c0-0.09-0.03-0.17-0.1-0.24c-0.07-0.06-0.17-0.11-0.31-0.14l-0.45-0.11
							c-0.25-0.06-0.43-0.15-0.55-0.28s-0.17-0.28-0.17-0.47c0-0.15,0.04-0.29,0.13-0.41s0.21-0.21,0.36-0.28s0.32-0.1,0.51-0.1
							c0.27,0,0.48,0.06,0.64,0.18C34,29.4,34.11,29.56,34.18,29.75z"/>
					</g>
				</g>
			</g>
		</g>
	</g>
	<g>
		<g>
			<g>
				<g>
					<g>
						<g>
							<path class="st0" d="M28.01,1.1H11.99c-2.36,0-4.28,1.92-4.28,4.28V21.4c0,2.36,1.92,4.28,4.28,4.28h16.02
								c2.36,0,4.28-1.92,4.28-4.28V5.38C32.29,3.02,30.37,1.1,28.01,1.1 M31.74,21.4c0,2.06-1.67,3.73-3.73,3.73H11.99
								c-2.06,0-3.73-1.67-3.73-3.73V5.38c0-2.06,1.67-3.73,3.73-3.73h16.02c2.06,0,3.73,1.67,3.73,3.73V21.4z"/>
						</g>
					</g>
				</g>
			</g>
		</g>
		<g>
			<g>
				<g>
					<g>
						<g>
							<g>
								<path class="st0" d="M25.57,19.86H14.43c-0.13,0-0.24-0.11-0.24-0.24s0.11-0.24,0.24-0.24h11.15c0.13,0,0.24,0.11,0.24,0.24
									S25.71,19.86,25.57,19.86"/>
							</g>
						</g>
					</g>
				</g>
			</g>
			<g>
				<g>
					<g>
						<g>
							<g>
								<path class="st0" d="M26.62,18.3H13.38c-1.1,0-1.99-0.9-1.99-1.99v-7.4c0-1.1,0.89-1.99,1.99-1.99h13.25
									c1.1,0,1.99,0.9,1.99,1.99v7.39C28.62,17.4,27.72,18.3,26.62,18.3 M13.38,7.4c-0.83,0-1.51,0.68-1.51,1.51v7.39
									c0,0.83,0.68,1.51,1.51,1.51h13.25c0.83,0,1.51-0.68,1.51-1.51V8.91c0-0.83-0.68-1.51-1.51-1.51
									C26.63,7.4,13.38,7.4,13.38,7.4z"/>
							</g>
						</g>
					</g>
				</g>
			</g>
			<g>
				<g>
					<g>
						<g>
							<g>
								<path class="st0" d="M18.09,15.13c-0.13,0-0.24-0.11-0.24-0.24v-2.16c0-0.13,0.11-0.24,0.24-0.24s0.24,0.11,0.24,0.24v2.16
									C18.34,15.02,18.23,15.13,18.09,15.13"/>
							</g>
						</g>
					</g>
				</g>
			</g>
			<g>
				<g>
					<g>
						<g>
							<g>
								<path class="st0" d="M18.95,15.13c-0.13,0-0.24-0.11-0.24-0.24V13.8c0-0.13,0.11-0.24,0.24-0.24s0.24,0.11,0.24,0.24v1.08
									C19.19,15.02,19.08,15.13,18.95,15.13"/>
							</g>
						</g>
					</g>
				</g>
			</g>
			<g>
				<g>
					<g>
						<g>
							<g>
								<path class="st0" d="M19.8,15.13c-0.13,0-0.24-0.11-0.24-0.24v-2.74c0-0.13,0.11-0.24,0.24-0.24s0.24,0.11,0.24,0.24v2.74
									C20.04,15.02,19.94,15.13,19.8,15.13"/>
							</g>
						</g>
					</g>
				</g>
			</g>
			<g>
				<g>
					<g>
						<g>
							<g>
								<path class="st0" d="M20.8,15.13c-0.13,0-0.24-0.11-0.24-0.24V9.95c0-0.13,0.11-0.24,0.24-0.24s0.24,0.11,0.24,0.24v4.94
									C21.04,15.02,20.93,15.13,20.8,15.13"/>
							</g>
						</g>
					</g>
				</g>
			</g>
			<g>
				<g>
					<g>
						<g>
							<g>
								<path class="st0" d="M24.63,15.97h-7.82c-0.13,0-0.24-0.11-0.24-0.24s0.11-0.24,0.24-0.24h7.82c0.13,0,0.24,0.11,0.24,0.24
									C24.87,15.86,24.76,15.97,24.63,15.97"/>
							</g>
						</g>
					</g>
				</g>
			</g>
			<g>
				<g>
					<g>
						<g>
							<g>
								<path class="st0" d="M16.81,15.97c-0.13,0-0.24-0.11-0.24-0.24V11.7c0-0.13,0.11-0.24,0.24-0.24s0.24,0.11,0.24,0.24v4.03
									C17.05,15.86,16.94,15.97,16.81,15.97"/>
							</g>
						</g>
					</g>
				</g>
			</g>
			<g>
				<g>
					<g>
						<g>
							<g>
								<path class="st0" d="M21.69,15.13c-0.13,0-0.24-0.11-0.24-0.24v-3.63c0-0.13,0.11-0.24,0.24-0.24s0.24,0.11,0.24,0.24v3.63
									C21.94,15.02,21.83,15.13,21.69,15.13"/>
							</g>
						</g>
					</g>
				</g>
			</g>
			<g>
				<g>
					<g>
						<g>
							<g>
								<path class="st0" d="M22.61,15.13c-0.13,0-0.24-0.11-0.24-0.24v-4.01c0-0.13,0.11-0.24,0.24-0.24s0.24,0.11,0.24,0.24v4.01
									C22.85,15.02,22.75,15.13,22.61,15.13"/>
							</g>
						</g>
					</g>
				</g>
			</g>
		</g>
	</g>
</g>
</svg>
