<?xml version="1.0" encoding="utf-8"?>
<!-- Generator: Adobe Illustrator 28.1.0, SVG Export Plug-In . SVG Version: 6.00 Build 0)  -->
<svg version="1.1" id="Layer_1" xmlns="http://www.w3.org/2000/svg" xmlns:xlink="http://www.w3.org/1999/xlink" x="0px" y="0px"
	 viewBox="0 0 40 40" style="enable-background:new 0 0 40 40;" xml:space="preserve">
<style type="text/css">
	.st0{fill:#191B1C;}
</style>
<g>
	<g>
		<g>
			<g>
				<g>
					<g>
						<path class="st0" d="M5.21,31.87v-3.64h0.44v1.62h1.94v-1.62h0.44v3.64H7.59v-1.63H5.65v1.63H5.21z"/>
					</g>
				</g>
			</g>
		</g>
		<g>
			<g>
				<g>
					<g>
						<path class="st0" d="M11.83,29.37h-0.44c-0.03-0.13-0.07-0.24-0.14-0.33c-0.06-0.1-0.14-0.18-0.23-0.24
							c-0.09-0.07-0.19-0.12-0.3-0.15c-0.11-0.03-0.23-0.05-0.35-0.05c-0.22,0-0.42,0.06-0.6,0.17s-0.32,0.28-0.42,0.49
							c-0.1,0.22-0.16,0.48-0.16,0.8c0,0.31,0.05,0.58,0.16,0.8c0.1,0.22,0.25,0.38,0.42,0.49c0.18,0.11,0.38,0.17,0.6,0.17
							c0.12,0,0.24-0.02,0.35-0.05c0.11-0.03,0.21-0.08,0.3-0.15s0.17-0.15,0.23-0.24c0.06-0.1,0.11-0.21,0.14-0.33h0.44
							c-0.03,0.19-0.09,0.35-0.18,0.5s-0.2,0.27-0.33,0.37s-0.28,0.18-0.44,0.23s-0.33,0.08-0.52,0.08c-0.31,0-0.59-0.08-0.83-0.23
							s-0.43-0.37-0.57-0.65c-0.14-0.28-0.21-0.61-0.21-0.99s0.07-0.71,0.21-0.99s0.33-0.49,0.57-0.65
							c0.24-0.15,0.52-0.23,0.83-0.23c0.18,0,0.36,0.03,0.52,0.08c0.16,0.05,0.31,0.13,0.44,0.23c0.13,0.1,0.24,0.23,0.33,0.37
							C11.74,29.01,11.8,29.18,11.83,29.37z"/>
					</g>
				</g>
			</g>
		</g>
		<g>
			<g>
				<g>
					<g>
						<path class="st0" d="M12.34,28.62v-0.39h2.73v0.39h-1.14v3.25h-0.44v-3.25H12.34z"/>
					</g>
				</g>
			</g>
		</g>
		<g>
			<g>
				<g>
					<g>
						<path class="st0" d="M17.1,31.87v-0.32l1.2-1.31c0.14-0.15,0.26-0.29,0.35-0.4c0.09-0.11,0.16-0.22,0.2-0.32
							s0.07-0.21,0.07-0.32c0-0.13-0.03-0.24-0.09-0.33s-0.14-0.17-0.25-0.22c-0.1-0.05-0.22-0.08-0.35-0.08
							c-0.14,0-0.26,0.03-0.36,0.09s-0.18,0.14-0.24,0.24s-0.08,0.22-0.08,0.36h-0.42c0-0.21,0.05-0.4,0.15-0.56s0.23-0.29,0.4-0.38
							c0.17-0.09,0.36-0.13,0.57-0.13s0.4,0.04,0.57,0.13c0.16,0.09,0.29,0.21,0.39,0.36c0.09,0.15,0.14,0.32,0.14,0.51
							c0,0.13-0.02,0.26-0.07,0.39s-0.13,0.27-0.25,0.42c-0.12,0.16-0.28,0.35-0.49,0.57l-0.82,0.87v0.03h1.69v0.39L17.1,31.87
							L17.1,31.87z"/>
					</g>
				</g>
			</g>
		</g>
		<g>
			<g>
				<g>
					<g>
						<path class="st0" d="M21.31,31.92c-0.27,0-0.5-0.07-0.68-0.22c-0.19-0.15-0.33-0.36-0.43-0.64c-0.1-0.28-0.15-0.62-0.15-1.01
							s0.05-0.73,0.15-1.01s0.24-0.49,0.43-0.64s0.42-0.22,0.68-0.22s0.49,0.07,0.68,0.22s0.33,0.36,0.43,0.64s0.15,0.61,0.15,1.01
							s-0.05,0.73-0.15,1.01s-0.24,0.49-0.43,0.64C21.8,31.84,21.57,31.92,21.31,31.92z M21.31,31.53c0.27,0,0.47-0.13,0.62-0.38
							c0.15-0.26,0.22-0.62,0.22-1.09c0-0.31-0.03-0.58-0.1-0.8s-0.16-0.39-0.29-0.51c-0.12-0.12-0.27-0.17-0.45-0.17
							c-0.26,0-0.47,0.13-0.62,0.39s-0.22,0.62-0.22,1.1c0,0.31,0.03,0.58,0.1,0.8s0.16,0.39,0.29,0.5
							C20.98,31.47,21.13,31.53,21.31,31.53z"/>
					</g>
				</g>
			</g>
		</g>
		<g>
			<g>
				<g>
					<g>
						<path class="st0" d="M24.81,30.11v0.39h-1.59v-0.39H24.81z"/>
					</g>
				</g>
			</g>
		</g>
		<g>
			<g>
				<g>
					<g>
						<path class="st0" d="M25.66,31.87l1.63-3.22v-0.03h-1.88v-0.39h2.33v0.41l-1.62,3.22h-0.46V31.87z"/>
					</g>
				</g>
			</g>
		</g>
		<g>
			<g>
				<g>
					<g>
						<path class="st0" d="M29.59,31.92c-0.27,0-0.5-0.07-0.68-0.22c-0.19-0.15-0.33-0.36-0.43-0.64c-0.1-0.28-0.15-0.62-0.15-1.01
							s0.05-0.73,0.15-1.01s0.24-0.49,0.43-0.64s0.42-0.22,0.68-0.22s0.49,0.07,0.68,0.22s0.33,0.36,0.43,0.64s0.15,0.61,0.15,1.01
							s-0.05,0.73-0.15,1.01s-0.24,0.49-0.43,0.64C30.08,31.84,29.86,31.92,29.59,31.92z M29.59,31.53c0.27,0,0.47-0.13,0.62-0.38
							c0.15-0.26,0.22-0.62,0.22-1.09c0-0.31-0.03-0.58-0.1-0.8s-0.16-0.39-0.29-0.51c-0.12-0.12-0.27-0.17-0.45-0.17
							c-0.26,0-0.47,0.13-0.62,0.39s-0.22,0.62-0.22,1.1c0,0.31,0.03,0.58,0.1,0.8s0.16,0.39,0.29,0.5
							C29.26,31.47,29.41,31.53,29.59,31.53z"/>
					</g>
				</g>
			</g>
		</g>
		<g>
			<g>
				<g>
					<g>
						<path class="st0" d="M31.57,29.1v-0.19c0-0.13,0.03-0.25,0.08-0.36c0.06-0.11,0.14-0.2,0.24-0.27s0.23-0.1,0.39-0.1
							c0.15,0,0.28,0.03,0.39,0.1c0.1,0.07,0.18,0.16,0.24,0.27s0.08,0.23,0.08,0.36v0.19c0,0.13-0.03,0.25-0.08,0.36
							c-0.05,0.11-0.13,0.2-0.24,0.27s-0.23,0.1-0.38,0.1s-0.28-0.03-0.39-0.1c-0.1-0.07-0.19-0.16-0.24-0.27
							C31.6,29.36,31.57,29.24,31.57,29.1z M31.7,31.87l2.5-3.64h0.4l-2.5,3.64H31.7z M31.93,28.91v0.19c0,0.11,0.03,0.21,0.08,0.3
							c0.05,0.09,0.14,0.13,0.27,0.13c0.12,0,0.21-0.04,0.26-0.13c0.05-0.09,0.08-0.19,0.08-0.3v-0.19c0-0.11-0.02-0.21-0.07-0.3
							s-0.14-0.13-0.27-0.13c-0.12,0-0.21,0.04-0.27,0.13C31.96,28.7,31.93,28.8,31.93,28.91z M33.38,31.19V31
							c0-0.13,0.03-0.25,0.08-0.36c0.06-0.11,0.14-0.2,0.24-0.27s0.23-0.1,0.39-0.1c0.15,0,0.28,0.03,0.39,0.1
							c0.1,0.07,0.18,0.16,0.24,0.27c0.05,0.11,0.08,0.23,0.08,0.36v0.19c0,0.13-0.03,0.25-0.08,0.36c-0.05,0.11-0.13,0.2-0.24,0.27
							c-0.1,0.07-0.23,0.1-0.38,0.1s-0.28-0.03-0.39-0.1c-0.1-0.07-0.19-0.16-0.24-0.27C33.41,31.44,33.38,31.32,33.38,31.19z
							 M33.74,30.99v0.19c0,0.11,0.03,0.21,0.08,0.3s0.14,0.13,0.27,0.13c0.12,0,0.21-0.04,0.26-0.13c0.05-0.09,0.08-0.19,0.08-0.3
							v-0.19c0-0.11-0.02-0.21-0.07-0.3s-0.14-0.13-0.27-0.13c-0.12,0-0.21,0.04-0.27,0.13C33.77,30.79,33.74,30.88,33.74,30.99z"/>
					</g>
				</g>
			</g>
		</g>
	</g>
	<g>
		<g>
			<g>
				<g>
					<g>
						<g>
							<path class="st0" d="M28.01,1.1H11.99c-2.36,0-4.28,1.92-4.28,4.28V21.4c0,2.36,1.92,4.28,4.28,4.28h16.02
								c2.36,0,4.28-1.92,4.28-4.28V5.38C32.29,3.02,30.37,1.1,28.01,1.1 M31.74,21.4c0,2.06-1.67,3.73-3.73,3.73H11.99
								c-2.06,0-3.73-1.67-3.73-3.73V5.38c0-2.06,1.67-3.73,3.73-3.73h16.02c2.06,0,3.73,1.67,3.73,3.73V21.4z"/>
						</g>
					</g>
				</g>
			</g>
		</g>
		<g>
			<g>
				<g>
					<g>
						<g>
							<g>
								<polygon class="st0" points="11.81,16.27 11.81,10.51 13.03,10.51 13.03,12.89 15.5,12.89 15.5,10.51 16.72,10.51 
									16.72,16.27 15.5,16.27 15.5,13.89 13.03,13.89 13.03,16.27 								"/>
							</g>
						</g>
					</g>
				</g>
			</g>
			<g>
				<g>
					<g>
						<g>
							<g>
								<path class="st0" d="M22.8,12.53h-1.23c-0.02-0.16-0.07-0.3-0.14-0.43s-0.16-0.23-0.27-0.32s-0.23-0.16-0.38-0.2
									c-0.14-0.05-0.29-0.07-0.46-0.07c-0.3,0-0.56,0.07-0.78,0.22c-0.22,0.15-0.39,0.36-0.51,0.64
									c-0.12,0.28-0.18,0.62-0.18,1.02c0,0.41,0.06,0.76,0.18,1.03c0.12,0.28,0.3,0.49,0.52,0.63c0.22,0.14,0.48,0.21,0.77,0.21
									c0.16,0,0.32-0.02,0.45-0.06c0.14-0.04,0.26-0.11,0.37-0.19s0.2-0.18,0.27-0.31c0.07-0.12,0.12-0.26,0.15-0.41l1.23,0.01
									c-0.03,0.26-0.11,0.52-0.24,0.76c-0.13,0.25-0.3,0.46-0.51,0.66c-0.21,0.19-0.47,0.34-0.76,0.46
									c-0.29,0.11-0.62,0.17-1,0.17c-0.51,0-0.97-0.12-1.38-0.35c-0.4-0.23-0.72-0.57-0.96-1.01c-0.23-0.44-0.35-0.97-0.35-1.6
									s0.12-1.16,0.35-1.6c0.24-0.44,0.56-0.78,0.96-1.01c0.4-0.23,0.86-0.35,1.37-0.35c0.33,0,0.64,0.05,0.93,0.14
									s0.54,0.23,0.76,0.41s0.4,0.4,0.54,0.66C22.67,11.9,22.76,12.19,22.8,12.53"/>
							</g>
						</g>
					</g>
				</g>
			</g>
			<g>
				<g>
					<g>
						<g>
							<g>
								<polygon class="st0" points="23.46,11.51 23.46,10.51 28.19,10.51 28.19,11.51 26.43,11.51 26.43,16.27 25.22,16.27 
									25.22,11.51 								"/>
							</g>
						</g>
					</g>
				</g>
			</g>
		</g>
	</g>
</g>
</svg>
