<?xml version="1.0" encoding="utf-8"?>
<!-- Generator: Adobe Illustrator 28.1.0, SVG Export Plug-In . SVG Version: 6.00 Build 0)  -->
<svg version="1.1" id="Layer_1" xmlns="http://www.w3.org/2000/svg" xmlns:xlink="http://www.w3.org/1999/xlink" x="0px" y="0px"
	 viewBox="0 0 40 40" style="enable-background:new 0 0 40 40;" xml:space="preserve">
<style type="text/css">
	.st0{fill:#191B1C;}
</style>
<g>
	<g>
		<g>
			<g>
				<g>
					<g>
						<path class="st0" d="M11.2,28.29v3.64h-0.43l-1.98-2.85H8.76v2.85H8.32v-3.64h0.43l1.99,2.86h0.04v-2.86H11.2z"/>
					</g>
				</g>
			</g>
		</g>
		<g>
			<g>
				<g>
					<g>
						<path class="st0" d="M13.13,31.99c-0.25,0-0.46-0.06-0.65-0.18s-0.33-0.28-0.43-0.49s-0.16-0.46-0.16-0.74
							s0.05-0.53,0.16-0.74s0.25-0.38,0.43-0.49s0.4-0.18,0.65-0.18s0.46,0.06,0.65,0.18s0.33,0.28,0.43,0.49s0.16,0.46,0.16,0.74
							s-0.05,0.53-0.16,0.74c-0.1,0.21-0.25,0.37-0.43,0.49S13.38,31.99,13.13,31.99z M13.13,31.61c0.19,0,0.34-0.05,0.46-0.14
							s0.21-0.22,0.27-0.38s0.09-0.33,0.09-0.51s-0.03-0.35-0.09-0.51s-0.15-0.28-0.27-0.38s-0.27-0.15-0.46-0.15
							s-0.34,0.05-0.46,0.15s-0.21,0.22-0.27,0.38s-0.09,0.33-0.09,0.51s0.03,0.35,0.09,0.51s0.15,0.28,0.27,0.38
							S12.94,31.61,13.13,31.61z"/>
					</g>
				</g>
			</g>
		</g>
		<g>
			<g>
				<g>
					<g>
						<path class="st0" d="M17.52,31.99c-0.26,0-0.48-0.06-0.66-0.18s-0.33-0.29-0.43-0.5s-0.15-0.45-0.15-0.73
							c0-0.28,0.05-0.52,0.15-0.73s0.25-0.38,0.43-0.5s0.4-0.18,0.65-0.18c0.19,0,0.36,0.04,0.52,0.11s0.28,0.17,0.38,0.3
							c0.1,0.13,0.16,0.28,0.18,0.45h-0.42c-0.03-0.12-0.1-0.23-0.21-0.33c-0.11-0.1-0.26-0.14-0.44-0.14
							c-0.16,0-0.31,0.04-0.43,0.13c-0.12,0.08-0.22,0.2-0.29,0.36c-0.07,0.15-0.1,0.33-0.1,0.54c0,0.21,0.03,0.39,0.1,0.55
							s0.16,0.28,0.28,0.36s0.27,0.13,0.43,0.13c0.11,0,0.21-0.02,0.3-0.06c0.09-0.04,0.16-0.09,0.23-0.16
							c0.06-0.07,0.1-0.16,0.13-0.26h0.42c-0.02,0.16-0.08,0.31-0.17,0.43c-0.09,0.13-0.22,0.23-0.37,0.31
							C17.9,31.95,17.72,31.99,17.52,31.99z"/>
					</g>
				</g>
			</g>
		</g>
		<g>
			<g>
				<g>
					<g>
						<path class="st0" d="M20.31,31.99c-0.25,0-0.46-0.06-0.65-0.18s-0.33-0.28-0.43-0.49s-0.16-0.46-0.16-0.74
							s0.05-0.53,0.16-0.74s0.25-0.38,0.43-0.49s0.4-0.18,0.65-0.18s0.46,0.06,0.65,0.18s0.33,0.28,0.43,0.49s0.16,0.46,0.16,0.74
							s-0.05,0.53-0.16,0.74c-0.1,0.21-0.25,0.37-0.43,0.49S20.56,31.99,20.31,31.99z M20.31,31.61c0.19,0,0.34-0.05,0.46-0.14
							s0.21-0.22,0.27-0.38s0.09-0.33,0.09-0.51s-0.03-0.35-0.09-0.51s-0.15-0.28-0.27-0.38s-0.27-0.15-0.46-0.15
							c-0.19,0-0.34,0.05-0.46,0.15s-0.21,0.22-0.27,0.38c-0.06,0.16-0.09,0.33-0.09,0.51s0.03,0.35,0.09,0.51s0.15,0.28,0.27,0.38
							S20.12,31.61,20.31,31.61z"/>
					</g>
				</g>
			</g>
		</g>
		<g>
			<g>
				<g>
					<g>
						<path class="st0" d="M23.22,31.99c-0.23,0-0.43-0.06-0.6-0.17c-0.17-0.12-0.31-0.28-0.41-0.49s-0.15-0.46-0.15-0.75
							s0.05-0.54,0.15-0.75s0.24-0.37,0.41-0.49c0.18-0.12,0.38-0.17,0.61-0.17c0.18,0,0.32,0.03,0.42,0.09s0.18,0.12,0.24,0.2
							c0.06,0.07,0.1,0.13,0.13,0.18h0.04V28.3h0.42v3.64h-0.41v-0.42h-0.05c-0.03,0.05-0.07,0.11-0.13,0.19s-0.14,0.14-0.24,0.2
							C23.53,31.96,23.39,31.99,23.22,31.99z M23.27,31.61c0.17,0,0.31-0.04,0.43-0.13c0.12-0.09,0.2-0.21,0.26-0.37
							c0.06-0.16,0.09-0.34,0.09-0.54s-0.03-0.38-0.09-0.54s-0.15-0.27-0.26-0.36c-0.12-0.09-0.26-0.13-0.43-0.13
							c-0.18,0-0.33,0.04-0.44,0.14c-0.12,0.09-0.21,0.21-0.26,0.37c-0.06,0.15-0.09,0.33-0.09,0.52s0.03,0.37,0.09,0.53
							s0.15,0.28,0.27,0.38S23.1,31.61,23.27,31.61z"/>
					</g>
				</g>
			</g>
		</g>
		<g>
			<g>
				<g>
					<g>
						<path class="st0" d="M25.5,28.75c-0.08,0-0.15-0.03-0.21-0.08s-0.09-0.12-0.09-0.2s0.03-0.15,0.09-0.2s0.13-0.08,0.21-0.08
							s0.15,0.03,0.21,0.08s0.09,0.12,0.09,0.2s-0.03,0.15-0.09,0.2S25.59,28.75,25.5,28.75z M25.29,31.93V29.2h0.42v2.73H25.29z"/>
					</g>
				</g>
			</g>
		</g>
		<g>
			<g>
				<g>
					<g>
						<path class="st0" d="M26.9,30.29v1.64h-0.42V29.2h0.41v0.43h0.04c0.06-0.14,0.16-0.25,0.29-0.33c0.13-0.08,0.3-0.13,0.5-0.13
							c0.19,0,0.35,0.04,0.48,0.11s0.25,0.19,0.32,0.34c0.08,0.15,0.12,0.34,0.12,0.58v1.73h-0.42v-1.7c0-0.21-0.06-0.38-0.17-0.5
							s-0.26-0.18-0.46-0.18c-0.13,0-0.25,0.03-0.36,0.09c-0.1,0.06-0.19,0.14-0.25,0.25S26.9,30.13,26.9,30.29z"/>
					</g>
				</g>
			</g>
		</g>
		<g>
			<g>
				<g>
					<g>
						<path class="st0" d="M30.5,33.01c-0.2,0-0.38-0.03-0.52-0.08c-0.15-0.05-0.27-0.12-0.36-0.2c-0.1-0.08-0.17-0.17-0.23-0.27
							l0.33-0.23c0.04,0.05,0.09,0.11,0.14,0.17c0.06,0.06,0.14,0.12,0.24,0.17s0.23,0.07,0.4,0.07c0.22,0,0.4-0.05,0.54-0.16
							c0.14-0.11,0.21-0.27,0.21-0.5v-0.55h-0.04c-0.03,0.05-0.07,0.11-0.13,0.18s-0.14,0.14-0.24,0.19
							c-0.1,0.06-0.25,0.08-0.42,0.08c-0.22,0-0.42-0.05-0.59-0.16c-0.17-0.1-0.31-0.26-0.41-0.45c-0.1-0.2-0.15-0.44-0.15-0.72
							c0-0.28,0.05-0.52,0.15-0.73s0.24-0.37,0.41-0.48c0.18-0.11,0.38-0.17,0.61-0.17c0.18,0,0.32,0.03,0.42,0.09
							s0.19,0.12,0.24,0.2c0.06,0.07,0.1,0.13,0.13,0.18h0.04V29.2h0.41v2.81c0,0.23-0.05,0.43-0.16,0.57s-0.25,0.26-0.43,0.32
							S30.72,33.01,30.5,33.01z M30.49,31.51c0.17,0,0.31-0.04,0.43-0.12s0.2-0.19,0.26-0.33s0.09-0.32,0.09-0.52
							s-0.03-0.37-0.09-0.52s-0.15-0.27-0.26-0.35c-0.12-0.09-0.26-0.13-0.43-0.13c-0.18,0-0.33,0.04-0.44,0.13
							c-0.12,0.09-0.21,0.21-0.26,0.36s-0.09,0.32-0.09,0.5c0,0.19,0.03,0.36,0.09,0.5c0.06,0.15,0.15,0.26,0.27,0.34
							C30.17,31.47,30.31,31.51,30.49,31.51z"/>
					</g>
				</g>
			</g>
		</g>
	</g>
	<g>
		<g>
			<g>
				<g>
					<g>
						<g>
							<path class="st0" d="M28.01,1.1H11.99c-2.36,0-4.28,1.92-4.28,4.28V21.4c0,2.36,1.92,4.28,4.28,4.28h16.02
								c2.36,0,4.28-1.92,4.28-4.28V5.38C32.29,3.02,30.37,1.1,28.01,1.1 M31.74,21.4c0,2.06-1.67,3.73-3.73,3.73H11.99
								c-2.06,0-3.73-1.67-3.73-3.73V5.38c0-2.06,1.67-3.73,3.73-3.73h16.02c2.06,0,3.73,1.67,3.73,3.73V21.4z"/>
						</g>
					</g>
				</g>
			</g>
		</g>
		<g>
			<g>
				<g>
					<g>
						<g>
							<path class="st0" d="M16.67,20.3l-4.76-5.53l0.92-0.79l3.86,4.49c1.71-1.91,3.39-3.85,5.01-5.73
								c1.77-2.05,3.6-4.17,5.49-6.26l0.9,0.81c-1.87,2.08-3.7,4.19-5.47,6.24c-1.77,2.05-3.61,4.17-5.49,6.26L16.67,20.3z"/>
						</g>
					</g>
				</g>
			</g>
		</g>
	</g>
</g>
</svg>
