<?xml version="1.0" encoding="utf-8"?>
<!-- Generator: Adobe Illustrator 28.1.0, SVG Export Plug-In . SVG Version: 6.00 Build 0)  -->
<svg version="1.1" id="Layer_1" xmlns="http://www.w3.org/2000/svg" xmlns:xlink="http://www.w3.org/1999/xlink" x="0px" y="0px"
	 viewBox="0 0 40 40" style="enable-background:new 0 0 40 40;" xml:space="preserve">
<style type="text/css">
	.st0{fill:#191B1C;}
</style>
<g>
	<g>
		<g>
			<g>
				<g>
					<g>
						<path class="st0" d="M7.86,29.2c-0.02-0.18-0.11-0.32-0.26-0.42c-0.15-0.1-0.34-0.15-0.56-0.15c-0.16,0-0.3,0.03-0.42,0.08
							s-0.21,0.12-0.28,0.21s-0.1,0.19-0.1,0.31c0,0.1,0.02,0.18,0.07,0.25s0.11,0.13,0.18,0.17s0.15,0.08,0.23,0.11
							s0.15,0.05,0.22,0.07l0.37,0.1c0.09,0.02,0.2,0.06,0.32,0.1c0.12,0.04,0.23,0.1,0.34,0.18c0.11,0.08,0.2,0.17,0.27,0.29
							c0.07,0.12,0.1,0.26,0.1,0.43c0,0.2-0.05,0.37-0.15,0.53c-0.1,0.16-0.25,0.28-0.45,0.38C7.54,31.95,7.3,32,7.02,32
							c-0.26,0-0.49-0.04-0.68-0.13c-0.19-0.08-0.34-0.2-0.45-0.35S5.72,31.19,5.71,31h0.45c0.01,0.14,0.06,0.25,0.14,0.34
							s0.18,0.16,0.31,0.2c0.12,0.04,0.26,0.06,0.4,0.06c0.17,0,0.32-0.03,0.45-0.08c0.13-0.05,0.24-0.13,0.32-0.23
							c0.08-0.1,0.12-0.21,0.12-0.35c0-0.12-0.03-0.22-0.1-0.29s-0.16-0.14-0.27-0.18c-0.11-0.05-0.23-0.09-0.36-0.12l-0.45-0.13
							c-0.28-0.08-0.51-0.2-0.67-0.35c-0.17-0.15-0.25-0.35-0.25-0.59c0-0.2,0.06-0.38,0.17-0.53c0.11-0.15,0.26-0.27,0.45-0.35
							s0.4-0.13,0.63-0.13s0.44,0.04,0.62,0.12S8,28.59,8.1,28.73c0.11,0.14,0.16,0.31,0.17,0.49H7.86V29.2z"/>
					</g>
				</g>
			</g>
		</g>
		<g>
			<g>
				<g>
					<g>
						<path class="st0" d="M10.19,29.2v0.35H8.78V29.2H10.19z M9.19,28.55h0.42v2.6c0,0.12,0.02,0.21,0.05,0.27
							c0.04,0.06,0.08,0.1,0.13,0.12c0.06,0.02,0.11,0.03,0.18,0.03c0.05,0,0.08,0,0.11-0.01s0.05-0.01,0.07-0.01l0.08,0.38
							c-0.03,0.01-0.07,0.02-0.12,0.03s-0.12,0.02-0.19,0.02c-0.12,0-0.23-0.03-0.35-0.08c-0.11-0.05-0.21-0.13-0.28-0.23
							s-0.11-0.24-0.11-0.39L9.19,28.55L9.19,28.55z"/>
					</g>
				</g>
			</g>
		</g>
		<g>
			<g>
				<g>
					<g>
						<path class="st0" d="M10.82,31.93V29.2h0.41v0.41h0.03c0.05-0.13,0.14-0.24,0.27-0.33c0.13-0.08,0.28-0.13,0.44-0.13
							c0.03,0,0.07,0,0.12,0s0.08,0,0.1,0.01v0.43c-0.01,0-0.05-0.01-0.1-0.02s-0.1-0.01-0.16-0.01c-0.13,0-0.25,0.03-0.35,0.08
							c-0.1,0.06-0.19,0.13-0.25,0.23s-0.09,0.21-0.09,0.33v1.73H10.82z"/>
					</g>
				</g>
			</g>
		</g>
		<g>
			<g>
				<g>
					<g>
						<path class="st0" d="M12.89,28.75c-0.08,0-0.15-0.03-0.21-0.08s-0.09-0.12-0.09-0.2s0.03-0.15,0.09-0.2s0.13-0.08,0.21-0.08
							s0.15,0.03,0.21,0.08s0.09,0.12,0.09,0.2s-0.03,0.15-0.09,0.2S12.98,28.75,12.89,28.75z M12.68,31.93V29.2h0.42v2.73H12.68z"
							/>
					</g>
				</g>
			</g>
		</g>
		<g>
			<g>
				<g>
					<g>
						<path class="st0" d="M13.87,32.95V29.2h0.41v0.43h0.05c0.03-0.05,0.07-0.11,0.13-0.18s0.13-0.14,0.24-0.2s0.24-0.09,0.42-0.09
							c0.23,0,0.43,0.06,0.61,0.17c0.17,0.11,0.31,0.28,0.41,0.49s0.15,0.46,0.15,0.75s-0.05,0.54-0.15,0.75s-0.23,0.37-0.41,0.49
							c-0.17,0.12-0.37,0.17-0.6,0.17c-0.17,0-0.32-0.03-0.42-0.09c-0.11-0.06-0.19-0.13-0.24-0.2c-0.06-0.07-0.1-0.14-0.13-0.19
							H14.3v1.44h-0.43V32.95z M14.28,30.57c0,0.21,0.03,0.39,0.09,0.54c0.06,0.16,0.15,0.28,0.26,0.37
							c0.12,0.09,0.26,0.13,0.43,0.13c0.18,0,0.32-0.05,0.44-0.14s0.21-0.22,0.27-0.38s0.09-0.33,0.09-0.53
							c0-0.19-0.03-0.36-0.09-0.52c-0.06-0.15-0.15-0.28-0.26-0.37c-0.12-0.09-0.27-0.14-0.44-0.14c-0.17,0-0.31,0.04-0.43,0.13
							c-0.12,0.09-0.2,0.21-0.26,0.36S14.28,30.36,14.28,30.57z"/>
					</g>
				</g>
			</g>
		</g>
		<g>
			<g>
				<g>
					<g>
						<path class="st0" d="M19.46,31.99c-0.26,0-0.49-0.06-0.68-0.17s-0.34-0.28-0.44-0.49s-0.15-0.46-0.15-0.73
							s0.05-0.53,0.15-0.74s0.25-0.38,0.43-0.5s0.4-0.18,0.65-0.18c0.14,0,0.28,0.02,0.42,0.07s0.26,0.12,0.38,0.23
							c0.11,0.11,0.2,0.25,0.27,0.42s0.1,0.39,0.1,0.64v0.18h-2.1v-0.36h1.68c0-0.15-0.03-0.29-0.09-0.41
							c-0.06-0.12-0.15-0.22-0.26-0.29s-0.24-0.1-0.4-0.1c-0.17,0-0.31,0.04-0.43,0.12s-0.21,0.19-0.28,0.32
							c-0.07,0.13-0.1,0.27-0.1,0.42v0.24c0,0.21,0.04,0.38,0.11,0.52c0.07,0.14,0.17,0.25,0.3,0.32s0.28,0.11,0.45,0.11
							c0.11,0,0.21-0.02,0.3-0.05s0.17-0.08,0.23-0.14s0.12-0.14,0.15-0.24l0.4,0.11c-0.04,0.14-0.11,0.26-0.21,0.36
							c-0.1,0.1-0.23,0.18-0.37,0.24S19.65,31.99,19.46,31.99z"/>
					</g>
				</g>
			</g>
		</g>
		<g>
			<g>
				<g>
					<g>
						<path class="st0" d="M21.23,29.2h0.42v2.93c0,0.17-0.03,0.31-0.09,0.44c-0.06,0.12-0.14,0.22-0.26,0.29s-0.26,0.1-0.44,0.1
							c-0.01,0-0.03,0-0.04,0s-0.03,0-0.04,0v-0.39c0.01,0,0.03,0,0.04,0s0.02,0,0.04,0c0.13,0,0.22-0.04,0.28-0.11
							c0.06-0.08,0.09-0.18,0.09-0.32V29.2z M21.44,28.75c-0.08,0-0.15-0.03-0.21-0.08s-0.09-0.12-0.09-0.2s0.03-0.15,0.09-0.2
							s0.13-0.08,0.21-0.08s0.15,0.03,0.21,0.08s0.09,0.12,0.09,0.2s-0.03,0.15-0.09,0.2S21.52,28.75,21.44,28.75z"/>
					</g>
				</g>
			</g>
		</g>
		<g>
			<g>
				<g>
					<g>
						<path class="st0" d="M23.56,31.99c-0.26,0-0.49-0.06-0.68-0.17s-0.34-0.28-0.44-0.49s-0.15-0.46-0.15-0.73
							s0.05-0.53,0.15-0.74s0.25-0.38,0.43-0.5s0.4-0.18,0.65-0.18c0.14,0,0.28,0.02,0.42,0.07s0.26,0.12,0.38,0.23
							c0.11,0.11,0.2,0.25,0.27,0.42s0.1,0.39,0.1,0.64v0.18h-2.1v-0.36h1.68c0-0.15-0.03-0.29-0.09-0.41
							c-0.06-0.12-0.15-0.22-0.26-0.29s-0.24-0.1-0.4-0.1c-0.17,0-0.31,0.04-0.43,0.12s-0.21,0.19-0.28,0.32
							c-0.07,0.13-0.1,0.27-0.1,0.42v0.24c0,0.21,0.04,0.38,0.11,0.52c0.07,0.14,0.17,0.25,0.3,0.32s0.28,0.11,0.45,0.11
							c0.11,0,0.21-0.02,0.3-0.05s0.17-0.08,0.23-0.14s0.12-0.14,0.15-0.24l0.4,0.11c-0.04,0.14-0.11,0.26-0.21,0.36
							c-0.1,0.1-0.23,0.18-0.37,0.24S23.75,31.99,23.56,31.99z"/>
					</g>
				</g>
			</g>
		</g>
		<g>
			<g>
				<g>
					<g>
						<path class="st0" d="M26.44,31.99c-0.26,0-0.48-0.06-0.66-0.18s-0.33-0.29-0.43-0.5s-0.15-0.45-0.15-0.73
							c0-0.28,0.05-0.52,0.15-0.73s0.25-0.38,0.43-0.5s0.4-0.18,0.65-0.18c0.19,0,0.36,0.04,0.52,0.11s0.28,0.17,0.38,0.3
							c0.1,0.13,0.16,0.28,0.18,0.45h-0.42c-0.03-0.12-0.1-0.23-0.21-0.33c-0.11-0.1-0.26-0.14-0.44-0.14
							c-0.16,0-0.31,0.04-0.43,0.13c-0.12,0.08-0.22,0.2-0.29,0.36c-0.07,0.15-0.1,0.33-0.1,0.54c0,0.21,0.03,0.39,0.1,0.55
							s0.16,0.28,0.28,0.36s0.27,0.13,0.43,0.13c0.11,0,0.21-0.02,0.3-0.06c0.09-0.04,0.16-0.09,0.23-0.16
							c0.06-0.07,0.1-0.16,0.13-0.26h0.42c-0.02,0.16-0.08,0.31-0.17,0.43c-0.09,0.13-0.22,0.23-0.37,0.31
							C26.82,31.95,26.64,31.99,26.44,31.99z"/>
					</g>
				</g>
			</g>
		</g>
		<g>
			<g>
				<g>
					<g>
						<path class="st0" d="M29.31,29.2v0.35H27.9V29.2H29.31z M28.31,28.55h0.42v2.6c0,0.12,0.02,0.21,0.05,0.27
							c0.04,0.06,0.08,0.1,0.13,0.12c0.06,0.02,0.11,0.03,0.18,0.03c0.05,0,0.08,0,0.11-0.01s0.05-0.01,0.07-0.01l0.08,0.38
							c-0.03,0.01-0.07,0.02-0.12,0.03c-0.05,0.01-0.12,0.02-0.19,0.02c-0.12,0-0.23-0.03-0.35-0.08c-0.11-0.05-0.21-0.13-0.28-0.23
							c-0.07-0.1-0.11-0.24-0.11-0.39v-2.73H28.31z"/>
					</g>
				</g>
			</g>
		</g>
		<g>
			<g>
				<g>
					<g>
						<path class="st0" d="M31.05,31.99c-0.25,0-0.46-0.06-0.65-0.18s-0.33-0.28-0.43-0.49s-0.16-0.46-0.16-0.74
							s0.05-0.53,0.16-0.74s0.25-0.38,0.43-0.49s0.4-0.18,0.65-0.18s0.46,0.06,0.65,0.18s0.33,0.28,0.43,0.49s0.16,0.46,0.16,0.74
							s-0.05,0.53-0.16,0.74c-0.1,0.21-0.25,0.37-0.43,0.49S31.29,31.99,31.05,31.99z M31.05,31.61c0.19,0,0.34-0.05,0.46-0.14
							s0.21-0.22,0.27-0.38s0.09-0.33,0.09-0.51s-0.03-0.35-0.09-0.51s-0.15-0.28-0.27-0.38s-0.27-0.15-0.46-0.15
							c-0.19,0-0.34,0.05-0.46,0.15s-0.21,0.22-0.27,0.38c-0.06,0.16-0.09,0.33-0.09,0.51s0.03,0.35,0.09,0.51s0.15,0.28,0.27,0.38
							S30.86,31.61,31.05,31.61z"/>
					</g>
				</g>
			</g>
		</g>
		<g>
			<g>
				<g>
					<g>
						<path class="st0" d="M32.92,31.93V29.2h0.41v0.41h0.03c0.05-0.13,0.14-0.24,0.27-0.33c0.13-0.08,0.28-0.13,0.44-0.13
							c0.03,0,0.07,0,0.12,0s0.08,0,0.1,0.01v0.43c-0.01,0-0.05-0.01-0.1-0.02s-0.1-0.01-0.16-0.01c-0.13,0-0.25,0.03-0.35,0.08
							c-0.1,0.06-0.19,0.13-0.25,0.23s-0.09,0.21-0.09,0.33v1.73H32.92z"/>
					</g>
				</g>
			</g>
		</g>
	</g>
	<g>
		<g>
			<g>
				<g>
					<g>
						<g>
							<path class="st0" d="M28.01,1.1H11.99c-2.36,0-4.28,1.92-4.28,4.28V21.4c0,2.36,1.92,4.28,4.28,4.28h16.02
								c2.36,0,4.28-1.92,4.28-4.28V5.38C32.29,3.02,30.37,1.1,28.01,1.1 M31.74,21.4c0,2.06-1.67,3.73-3.73,3.73H11.99
								c-2.06,0-3.73-1.67-3.73-3.73V5.38c0-2.06,1.67-3.73,3.73-3.73h16.02c2.06,0,3.73,1.67,3.73,3.73V21.4z"/>
						</g>
					</g>
				</g>
			</g>
		</g>
		<g>
			<g>
				<g>
					<g>
						<g>
							<g>
								<path class="st0" d="M27.26,15.92H12.74L20,8.66L27.26,15.92z M13.91,15.43h12.17L20,9.35L13.91,15.43z"/>
							</g>
						</g>
					</g>
				</g>
			</g>
			<g>
				<g>
					<g>
						<g>
							<g>
								<path class="st0" d="M27.17,18.12H12.83c-0.13,0-0.24-0.11-0.24-0.24s0.11-0.24,0.24-0.24h14.33c0.13,0,0.24,0.11,0.24,0.24
									C27.41,18.01,27.3,18.12,27.17,18.12"/>
							</g>
						</g>
					</g>
				</g>
			</g>
		</g>
	</g>
</g>
</svg>
