<svg xmlns="http://www.w3.org/2000/svg" viewBox="0 0 399.7 228" class="text-blackColor w-full" data-v-0a6223fd=""><path fill="currentColor" fill-rule="evenodd" stroke-width="0" d="M240.53,63.07V18.32h12.4v44.74h-12.4ZM246.76,12.55c-1.84,0-3.42-.61-4.74-1.84-1.3-1.24-1.95-2.73-1.95-4.46s.65-3.18,1.95-4.4c1.32-1.24,2.9-1.86,4.74-1.86s3.42.62,4.71,1.86c1.32,1.22,1.98,2.69,1.98,4.4s-.66,3.21-1.98,4.46c-1.3,1.22-2.87,1.84-4.71,1.84ZM207,18.32v44.74h12.4v-25.31c0-1.83.41-3.44,1.22-4.84.83-1.4,1.96-2.49,3.38-3.26,1.44-.8,3.07-1.19,4.89-1.19.85,0,1.79.07,2.82.2,1.03.14,1.83.29,2.42.47v-11.01c-.54-.14-1.17-.24-1.89-.32-.72-.08-1.39-.12-2.01-.12-2.5,0-4.71.72-6.64,2.16-1.92,1.42-3.29,3.52-4.1,6.29h-.47v-7.81h-12.02ZM83.27,63.07V18.32h11.82v7.89h.52c.93-2.62,2.48-4.69,4.66-6.2,2.17-1.51,4.77-2.27,7.8-2.27s5.67.77,7.83,2.3c2.15,1.51,3.59,3.57,4.31,6.18h.47c.91-2.56,2.56-4.61,4.95-6.15,2.41-1.55,5.25-2.33,8.53-2.33,4.17,0,7.56,1.33,10.16,3.99,2.62,2.64,3.93,6.39,3.93,11.24v30.09h-12.37v-27.64c0-2.49-.66-4.35-1.98-5.59-1.32-1.24-2.97-1.86-4.95-1.86-2.25,0-4.01.72-5.27,2.16-1.26,1.42-1.89,3.29-1.89,5.62v27.32h-12.02v-27.91c0-2.19-.63-3.94-1.89-5.24-1.24-1.3-2.88-1.95-4.92-1.95-1.38,0-2.62.35-3.73,1.05-1.09.68-1.95,1.64-2.59,2.88-.64,1.22-.96,2.66-.96,4.31v26.86h-12.4ZM178.39,63.94c-4.6,0-8.56-.93-11.87-2.8-3.3-1.88-5.84-4.54-7.62-7.98-1.79-3.46-2.68-7.54-2.68-12.26s.89-8.64,2.68-12.12c1.78-3.48,4.3-6.19,7.54-8.13,3.26-1.94,7.08-2.91,11.47-2.91,2.95,0,5.69.48,8.24,1.43,2.56.93,4.79,2.34,6.69,4.22,1.92,1.88,3.41,4.25,4.48,7.11,1.07,2.84,1.6,6.16,1.6,9.96v3.41h-30.44v.03c0,2.21.41,4.13,1.22,5.74.83,1.61,2.01,2.85,3.52,3.73,1.51.87,3.31,1.31,5.38,1.31,1.38,0,2.64-.19,3.78-.58,1.14-.39,2.12-.97,2.94-1.75.81-.78,1.44-1.73,1.86-2.85l11.47.76c-.58,2.76-1.78,5.17-3.58,7.22-1.78,2.04-4.09,3.63-6.93,4.78-2.81,1.13-6.06,1.69-9.75,1.69ZM169.72,31.78c-.75,1.33-1.17,2.79-1.24,4.4h18.76c0-1.79-.39-3.37-1.16-4.75-.78-1.38-1.85-2.46-3.23-3.23-1.36-.8-2.94-1.19-4.74-1.19s-3.55.44-5.01,1.31c-1.44.85-2.56,2.01-3.38,3.47ZM271.24,61.03c3.3,1.94,7.24,2.91,11.82,2.91,3.98,0,7.42-.73,10.33-2.18,2.91-1.46,5.19-3.48,6.84-6.06,1.67-2.6,2.6-5.61,2.79-9.03h-11.7c-.23,1.57-.73,2.92-1.48,4.05-.74,1.11-1.68,1.95-2.82,2.53-1.13.58-2.4.87-3.81.87-1.92,0-3.6-.52-5.04-1.57-1.44-1.05-2.55-2.57-3.35-4.57-.78-2-1.16-4.43-1.16-7.28s.4-5.21,1.19-7.2c.8-1.98,1.9-3.49,3.32-4.52,1.44-1.05,3.11-1.57,5.04-1.57,2.27,0,4.1.69,5.5,2.07,1.42,1.36,2.29,3.16,2.62,5.39h11.7c-.17-3.46-1.12-6.47-2.82-9.03s-4.03-4.55-6.96-5.97c-2.93-1.42-6.34-2.13-10.24-2.13-4.52,0-8.42.98-11.7,2.94-3.28,1.94-5.81,4.65-7.6,8.13-1.77,3.46-2.65,7.48-2.65,12.06s.87,8.53,2.62,12c1.77,3.48,4.29,6.19,7.57,8.16ZM323.7,63.91c-2.85,0-5.39-.5-7.62-1.49-2.23-1.01-4-2.5-5.3-4.46-1.28-1.98-1.92-4.45-1.92-7.4,0-2.49.46-4.57,1.37-6.26.91-1.69,2.15-3.05,3.72-4.08,1.57-1.03,3.36-1.81,5.35-2.33,2.02-.52,4.13-.89,6.34-1.11,2.6-.27,4.7-.52,6.29-.76,1.59-.25,2.75-.62,3.46-1.11s1.08-1.2,1.08-2.16v-.17c0-1.84-.58-3.27-1.75-4.28-1.14-1.01-2.77-1.51-4.89-1.51-2.23,0-4.01.5-5.33,1.49-1.32.97-2.19,2.19-2.62,3.67l-11.47-.93c.58-2.72,1.73-5.07,3.43-7.05,1.71-2,3.91-3.53,6.61-4.6,2.72-1.09,5.86-1.63,9.43-1.63,2.48,0,4.86.29,7.13.87,2.29.58,4.32,1.49,6.08,2.71,1.79,1.22,3.19,2.8,4.22,4.72,1.03,1.9,1.54,4.18,1.54,6.85v30.18h-11.76v-6.2h-.35c-.72,1.4-1.68,2.63-2.88,3.7-1.2,1.05-2.65,1.87-4.34,2.48-1.69.58-3.64.87-5.85.87ZM327.25,55.35c1.82,0,3.43-.36,4.83-1.08,1.4-.74,2.49-1.73,3.29-2.97.8-1.24,1.19-2.65,1.19-4.22v-4.75c-.39.25-.92.49-1.6.7-.66.19-1.41.38-2.24.55-.83.16-1.67.3-2.5.44-.83.12-1.59.22-2.27.32-1.46.21-2.73.55-3.81,1.02-1.09.47-1.93,1.1-2.53,1.89-.6.78-.9,1.75-.9,2.91,0,1.69.61,2.98,1.83,3.87,1.24.87,2.81,1.31,4.71,1.31ZM370.89,63.07v-25.87c.02-1.92.38-3.56,1.08-4.92.72-1.38,1.71-2.43,2.97-3.15,1.28-.72,2.75-1.08,4.42-1.08,2.48,0,4.43.78,5.85,2.33,1.42,1.53,2.11,3.67,2.1,6.41v26.28h12.4v-28.49c0-3.48-.64-6.47-1.92-8.97-1.28-2.52-3.08-4.47-5.38-5.83-2.31-1.36-5.02-2.04-8.12-2.04-3.32,0-6.14.77-8.47,2.3-2.33,1.51-3.99,3.57-4.98,6.18h-.52v-7.89h-11.82v44.74h12.4ZM94.16,145.97c-4.6,0-8.56-.93-11.87-2.8-3.3-1.88-5.84-4.54-7.62-7.98-1.78-3.46-2.68-7.54-2.68-12.26s.89-8.64,2.68-12.12c1.79-3.48,4.3-6.18,7.54-8.13,3.26-1.94,7.08-2.91,11.47-2.91,2.95,0,5.69.48,8.24,1.43,2.56.93,4.79,2.34,6.69,4.22,1.92,1.88,3.41,4.25,4.48,7.11,1.07,2.84,1.6,6.16,1.6,9.96v3.41h-30.44v.03c0,2.21.41,4.13,1.22,5.74.83,1.61,2.01,2.85,3.52,3.73,1.51.87,3.31,1.31,5.38,1.31,1.38,0,2.64-.19,3.78-.58,1.14-.39,2.12-.97,2.94-1.75.81-.78,1.44-1.73,1.86-2.85l11.47.76c-.58,2.76-1.78,5.17-3.58,7.22-1.78,2.04-4.09,3.63-6.93,4.78-2.81,1.13-6.06,1.69-9.75,1.69ZM85.49,113.81c-.75,1.33-1.16,2.79-1.24,4.4h18.76c0-1.79-.39-3.37-1.16-4.75-.78-1.38-1.85-2.46-3.23-3.23-1.36-.8-2.94-1.19-4.74-1.19s-3.55.44-5.01,1.31c-1.44.85-2.56,2.01-3.38,3.47ZM127.89,144.46c2.23.99,4.77,1.49,7.63,1.49,2.21,0,4.16-.29,5.85-.87,1.69-.6,3.13-1.43,4.34-2.48,1.2-1.07,2.16-2.3,2.88-3.7h.35v6.2h11.76v-30.18c0-2.66-.51-4.94-1.54-6.85-1.03-1.92-2.43-3.5-4.22-4.72-1.77-1.22-3.79-2.13-6.08-2.71-2.27-.58-4.65-.87-7.13-.87-3.57,0-6.71.54-9.43,1.63-2.7,1.07-4.9,2.6-6.61,4.6-1.71,1.98-2.85,4.33-3.43,7.05l11.47.93c.43-1.48,1.3-2.7,2.62-3.67,1.32-.99,3.09-1.49,5.33-1.49,2.11,0,3.74.51,4.89,1.52,1.16,1.01,1.75,2.44,1.75,4.28v.17c0,.95-.36,1.67-1.08,2.16-.72.49-1.87.85-3.46,1.11-1.59.23-3.69.49-6.29.76-2.21.21-4.33.58-6.34,1.11-2,.52-3.78,1.3-5.36,2.33-1.57,1.03-2.81,2.39-3.72,4.08-.91,1.69-1.37,3.78-1.37,6.26,0,2.95.64,5.42,1.92,7.4,1.3,1.96,3.07,3.45,5.3,4.46ZM143.89,136.3c-1.4.72-3.01,1.08-4.83,1.08s-3.47-.44-4.71-1.31c-1.22-.89-1.83-2.18-1.83-3.87,0-1.17.3-2.14.9-2.91.6-.8,1.45-1.43,2.53-1.89,1.09-.47,2.36-.81,3.81-1.02.68-.1,1.44-.2,2.27-.32.83-.14,1.67-.28,2.5-.44.83-.17,1.58-.36,2.24-.55.68-.21,1.21-.45,1.6-.7v4.75c0,1.57-.4,2.98-1.19,4.22-.8,1.24-1.89,2.23-3.29,2.97ZM182.7,85.44v59.66h-12.4v-59.66h12.4ZM216.41,109.67v-9.32h-8.41v-10.72h-12.4v10.72h-6.11v9.32h6.11v23.3c-.02,2.93.59,5.36,1.83,7.28,1.24,1.92,2.98,3.34,5.21,4.25,2.25.91,4.87,1.31,7.86,1.19,1.61-.06,2.98-.22,4.1-.5,1.13-.25,2-.48,2.62-.67l-1.95-9.23c-.31.06-.76.15-1.34.26-.58.1-1.16.15-1.75.15-.83,0-1.57-.13-2.21-.38-.62-.25-1.11-.69-1.46-1.31-.35-.64-.52-1.53-.52-2.68v-21.67h8.41ZM237.84,119.23v25.87h-12.4v-59.66h12.05v22.81h.52c1.01-2.64,2.64-4.71,4.89-6.2,2.25-1.51,5.07-2.27,8.47-2.27,3.1,0,5.81.68,8.12,2.04,2.33,1.34,4.13,3.27,5.41,5.8,1.3,2.51,1.94,5.51,1.92,9v28.49h-12.4v-26.27c.02-2.76-.68-4.9-2.1-6.44-1.4-1.53-3.36-2.3-5.88-2.3-1.69,0-3.18.36-4.48,1.08-1.28.72-2.29,1.77-3.03,3.15-.72,1.36-1.09,3-1.11,4.92ZM78.91,226.49c2.23.99,4.77,1.49,7.62,1.49,2.21,0,4.16-.29,5.85-.87,1.69-.6,3.13-1.43,4.34-2.48,1.2-1.07,2.16-2.3,2.88-3.7h.35v6.2h11.76v-30.18c0-2.66-.51-4.94-1.54-6.85-1.03-1.92-2.43-3.5-4.22-4.72-1.77-1.22-3.79-2.13-6.08-2.71-2.27-.58-4.65-.87-7.13-.87-3.57,0-6.71.54-9.43,1.63-2.7,1.07-4.9,2.6-6.61,4.6-1.71,1.98-2.85,4.33-3.43,7.05l11.47.93c.43-1.48,1.3-2.7,2.62-3.67,1.32-.99,3.09-1.49,5.33-1.49,2.11,0,3.74.51,4.89,1.52,1.16,1.01,1.75,2.44,1.75,4.28v.17c0,.95-.36,1.67-1.08,2.16-.72.49-1.87.85-3.46,1.11-1.59.23-3.69.49-6.29.76-2.21.21-4.33.58-6.34,1.11-2,.52-3.78,1.3-5.36,2.33-1.57,1.03-2.81,2.39-3.72,4.08-.91,1.69-1.37,3.78-1.37,6.26,0,2.95.64,5.42,1.92,7.4,1.3,1.96,3.07,3.45,5.3,4.46ZM94.91,218.33c-1.4.72-3.01,1.08-4.83,1.08s-3.47-.44-4.71-1.31c-1.22-.89-1.83-2.18-1.83-3.87,0-1.17.3-2.14.9-2.91.6-.8,1.45-1.43,2.53-1.89,1.09-.47,2.36-.81,3.81-1.02.68-.1,1.44-.2,2.27-.32.83-.14,1.67-.28,2.5-.44.83-.18,1.58-.36,2.24-.55.68-.21,1.21-.45,1.6-.7v4.75c0,1.57-.4,2.98-1.19,4.22-.8,1.24-1.89,2.23-3.29,2.97ZM145.1,182.38v9.32h-8.41v21.67c0,1.15.18,2.04.52,2.68.35.62.83,1.06,1.46,1.31.64.25,1.38.38,2.21.38.58,0,1.16-.05,1.75-.15.58-.12,1.03-.2,1.34-.26l1.95,9.23c-.62.19-1.49.42-2.62.67-1.13.27-2.49.44-4.1.49-2.99.12-5.61-.28-7.86-1.19-2.23-.91-3.97-2.33-5.21-4.25-1.24-1.92-1.85-4.35-1.83-7.28v-23.3h-6.11v-9.32h6.11v-10.72h12.4v10.72h8.41ZM161.19,225.2c3.32,1.86,7.28,2.8,11.87,2.8,3.69,0,6.94-.56,9.75-1.69,2.83-1.15,5.14-2.74,6.93-4.78,1.8-2.06,3-4.47,3.58-7.22l-11.47-.76c-.43,1.13-1.05,2.08-1.86,2.85-.81.78-1.79,1.36-2.94,1.75-1.14.39-2.41.58-3.78.58-2.08,0-3.87-.44-5.38-1.31-1.51-.87-2.69-2.12-3.52-3.73-.81-1.61-1.22-3.52-1.22-5.74v-.03h30.44v-3.41c0-3.81-.53-7.13-1.6-9.96-1.07-2.85-2.56-5.22-4.48-7.11-1.9-1.88-4.13-3.29-6.69-4.22-2.54-.95-5.29-1.43-8.24-1.43-4.38,0-8.21.97-11.47,2.91-3.24,1.94-5.75,4.65-7.54,8.13-1.79,3.48-2.68,7.52-2.68,12.12s.89,8.81,2.68,12.26c1.78,3.44,4.33,6.1,7.62,7.98ZM163.16,200.24c.07-1.61.49-3.07,1.24-4.4.81-1.46,1.94-2.61,3.38-3.47,1.46-.87,3.12-1.31,5.01-1.31s3.39.4,4.74,1.19c1.38.78,2.45,1.85,3.23,3.23.78,1.38,1.16,2.96,1.16,4.75h-18.76ZM50.38,3.18h12.59v18.91h-12.59L15.74,63.07H0L50.38,3.18ZM40.93,37.85l-10.75,12.61h20.19v12.61h12.59v-12.61h12.59v-12.61h-12.59v-12.61h-12.59v12.61h-9.45ZM50.38,110.43v-25.21h12.42v59.88h-12.42v-25.21h-24.84v25.21h-12.42v-59.88h12.42v25.21h24.84ZM41.06,201.91v-9.46h24.68c.14,1.58.21,3.15.21,4.73,0,6.18-.93,11.49-3.19,15.97-2.11,4.31-5.38,7.9-9.44,10.34-4.1,2.37-8.76,3.63-13.79,3.63s-9.67-1.24-13.79-3.63c-4.06-2.44-7.35-6.03-9.44-10.34-2.26-4.48-3.19-9.79-3.19-15.97,0-4.27.41-8.57,1.82-12.63,1.22-3.51,3.15-6.74,5.65-9.45,2.38-2.54,5.28-4.54,8.47-5.84,3.25-1.32,6.73-2.02,10.46-2.02s7.2.69,10.5,2.02c3.19,1.32,6.07,3.3,8.47,5.84,2.51,2.71,4.43,5.93,5.65,9.45.19.52.35,1.05.5,1.6h-13.42c-.21-.36-.43-.71-.68-1.05-.33-.46-.68-.92-1.08-1.34-.81-.84-1.72-1.55-2.71-2.12-.46-.25-.93-.48-1.41-.69-.05-.02-.09-.04-.14-.06-.15-.06-.3-.13-.46-.17-.6-.21-1.22-.4-1.84-.53-.64-.15-1.28-.23-1.99-.29-.46-.04-.91-.06-1.39-.06-.27,0-.52,0-.77.02-.72.02-1.41.08-2.05.21-.64.13-1.26.27-1.86.46-.37.1-.75.25-1.12.4-1.06.44-2.05,1.03-2.96,1.77-.39.31-.79.67-1.14,1.05-.93,1.01-1.7,2.14-2.3,3.38-.25.5-.48,1.03-.66,1.58-.02.06-.04.12-.06.18-.02.06-.04.12-.06.18-.19.63-.35,1.28-.5,2-.14.71-.25,1.47-.33,2.27-.01.18-.03.35-.04.53-.03.42-.07.86-.08,1.32v.06c-.02.32-.04.61-.04.93v1.56c.02.99.06,1.91.12,2.75.06.84.17,1.64.29,2.35.12.71.27,1.37.43,1.98.17.61.33,1.13.54,1.64.09.27.21.51.32.75.04.08.08.16.11.24.03.03.05.08.07.11,0,.01,0,.02.01.03.19.42.41.82.66,1.2.66,1.07,1.51,2.02,2.46,2.82.43.36.91.71,1.41,1.01.48.27.97.53,1.47.74.66.29,1.35.53,2.07.71.72.19,1.47.31,2.28.4.54.06,1.1.08,1.7.08s1.24-.04,1.82-.1c.79-.08,1.53-.23,2.26-.42.72-.19,1.41-.42,2.07-.71.48-.21.93-.44,1.39-.69.33-.19.66-.42.97-.65,1.06-.8,1.99-1.79,2.73-2.9.31-.48.6-.97.85-1.49.03-.03.05-.08.07-.11,0-.01.01-.02.01-.03l.25-.5c.23-.5.46-1.07.64-1.72.19-.65.35-1.34.5-2.14.06-.36.12-.71.17-1.11h-12.15Z" data-v-0a6223fd=""></path></svg>