<?xml version="1.0" encoding="UTF-8"?>
<svg id="Layer_2" data-name="Layer 2" xmlns="http://www.w3.org/2000/svg" viewBox="0 0 201 170.05">
  <defs>
    <style>
      .cls-1 {
        stroke: #000;
      }

      .cls-1, .cls-2, .cls-3 {
        fill: none;
      }

      .cls-1, .cls-3 {
        stroke-linecap: round;
        stroke-linejoin: round;
      }

      .cls-1, .cls-4 {
        stroke-width: 0px;
      }

      .cls-2 {
        stroke-miterlimit: 10;
      }

      .cls-2, .cls-3 {
        stroke: #fff;
      }

      .cls-3 {
        stroke-width: .35px;
      }

      .cls-4 {
        fill: #fff;
      }
    </style>
  </defs>
  <g id="Layer_3" data-name="Layer 3">
    <g>
      <g>
        <g>
          <path class="cls-2" d="M199.65,126.71c-2.19,5.79-8.48,9.48-10.3,10.47-2.61,1.43-5.36,2.17-8.8,2.87,0,0-61.76,10.91-82.13,12.37-8.27.6-17.2-1.47-23.07-4.63-8.13-4.36-11.78-10.26-16.36-18.27L8.36,40.75c-2.74-4.79-3.66-8.8-3.4-12.16.1-.79.17-1.26.25-1.67.01-.08.03-.15.05-.22.02-.1.04-.2.07-.31.03-.12.06-.24.1-.37.01-.07.04-.14.06-.21,0-.01,0-.02,0-.04,3.29-10.71,19.62-13.26,19.62-13.26,0,0,50.06-7.69,77.85-11.49,16.12-2.21,26.76,2.88,32.86,7.55,3.22,2.46,5.89,5.58,7.93,9.08,7.44,12.82,40.83,70.41,52.96,92.12,1.86,3.33,5.41,10.37,2.93,16.93Z"/>
          <path class="cls-2" d="M199.65,126.71c-.06.69-.32,1.94-.52,2.87-.15.71-.34,1.42-.57,2.1-1.23,3.65-2.62,6.57-3.75,8.68-1.4,2.62-2.5,4.66-4.57,6.98-.65.73-3.21,3.51-7.61,5.96-3.68,2.05-6.87,2.88-11.04,3.81-9.65,2.15-17.13,3.17-17.13,3.17-7.89,1.32-10.98,1.64-25.89,3.81-12.88,1.87-19.32,2.8-20.81,3.04-7.85,1.28-15.44,2.67-25.13,2.36-2.67-.08-5.44-.29-8.75-1.09-6.5-1.59-10.89-4.45-12.18-5.33-4.04-2.76-6.09-5.46-9.65-9.9-4.42-5.51-9.11-10.77-13.58-16.25-9.81-12-14.71-18.01-18.9-22.59-1.96-2.13-4.9-5.77-10.79-13.07-1.89-2.34-3.54-4.41-4.95-7.61-.51-1.16-1.38-3.71-2.41-9.9-.25-1.52-1.01-6.38-.91-13.96.05-3.91.3-6.74,1.42-16.25,1.12-9.55,1.55-12.6,2.16-17.64.48-3.97.72-6.06.88-7.33-.27,3.35.66,7.37,3.4,12.16l50.63,88.77c4.57,8.01,8.23,13.91,16.36,18.27,5.87,3.16,14.8,5.23,23.07,4.63,20.37-1.46,82.13-12.37,82.13-12.37,3.44-.7,6.19-1.44,8.8-2.87,1.82-.99,8.12-4.69,10.3-10.47Z"/>
          <path class="cls-2" d="M5.5,25.78s0,.02,0,.04c-.25.93-.34,1.29-.53,2.78"/>
        </g>
        <path class="cls-2" d="M186.95,134.51c1.33-.64,7.94-3.81,9.98-9.19,1.89-4.96-.65-10.27-1.98-12.75-9.73-18.13-53-92.87-53-92.87,0,0-10.76-20.88-40.43-16.03L26.51,15.17S.27,19.15,10.88,38.45c9.11,16.57,42.42,74.94,51.68,91.15,3.16,5.53,7.48,10.35,12.78,13.89,4.73,3.16,10.91,5.88,18.21,5.94,15.62.13,73.2-10.1,85.61-12.39.37-.07,1.99-.47,2.66-.63,0,0,2.28-.52,5.12-1.89Z"/>
      </g>
      <g>
        <g id="LINE">
          <line class="cls-3" x1="144.18" y1="136.29" x2="130.51" y2="138.42"/>
        </g>
        <g id="LINE-2" data-name="LINE">
          <line class="cls-3" x1="144.03" y1="135.39" x2="130.36" y2="137.51"/>
        </g>
        <g id="LWPOLYLINE">
          <polyline class="cls-3" points="121.73 125.59 120.72 125.81 119.68 126.2 118.82 126.72 118.14 127.36 117.68 128.09 117.56 128.4"/>
        </g>
        <g id="LINE-3" data-name="LINE">
          <line class="cls-3" x1="121.92" y1="125.71" x2="135.59" y2="123.59"/>
        </g>
        <g id="LINE-4" data-name="LINE">
          <line class="cls-3" x1="121.73" y1="125.59" x2="135.39" y2="123.47"/>
        </g>
        <g id="LINE-5" data-name="LINE">
          <line class="cls-3" x1="136.59" y1="123.36" x2="135.39" y2="123.47"/>
        </g>
        <g id="LINE-6" data-name="LINE">
          <line class="cls-3" x1="97.55" y1="138.57" x2="94.91" y2="134.9"/>
        </g>
        <g id="LINE-7" data-name="LINE">
          <line class="cls-3" x1="98.19" y1="138.01" x2="95.55" y2="134.34"/>
        </g>
        <g id="LWPOLYLINE-2" data-name="LWPOLYLINE">
          <polyline class="cls-3" points="108.07 132.59 107.37 131.78 106.37 130.97 105.18 130.27 103.86 129.73 102.45 129.34 101 129.13 99.58 129.09 98.23 129.25 96.99 129.58 95.94 130.09 95.11 130.75 94.53 131.53 94.33 132.01"/>
        </g>
        <g id="LINE-8" data-name="LINE">
          <line class="cls-3" x1="107.67" y1="132.46" x2="110.28" y2="136.13"/>
        </g>
        <g id="LINE-9" data-name="LINE">
          <line class="cls-3" x1="108.07" y1="132.59" x2="110.68" y2="136.26"/>
        </g>
        <g id="LINE-10" data-name="LINE">
          <line class="cls-3" x1="120.78" y1="134.96" x2="118.14" y2="131.29"/>
        </g>
        <g id="LINE-11" data-name="LINE">
          <line class="cls-3" x1="121.42" y1="134.4" x2="118.78" y2="130.73"/>
        </g>
        <g id="LINE-12" data-name="LINE">
          <line class="cls-3" x1="117.92" y1="131.44" x2="120.54" y2="135.11"/>
        </g>
        <g id="LWPOLYLINE-3" data-name="LWPOLYLINE">
          <polyline class="cls-3" points="144.96 126.85 144.27 126.06 143.29 125.25 142.12 124.56 140.81 124.01 139.42 123.62 138 123.4 136.59 123.36"/>
        </g>
        <g id="LINE-13" data-name="LINE">
          <line class="cls-3" x1="94.81" y1="135.21" x2="94.91" y2="134.9"/>
        </g>
        <g id="LINE-14" data-name="LINE">
          <line class="cls-3" x1="97.45" y1="138.87" x2="97.55" y2="138.57"/>
        </g>
        <g id="LINE-15" data-name="LINE">
          <line class="cls-3" x1="94.33" y1="132.01" x2="93.97" y2="133.05"/>
        </g>
        <g id="LINE-16" data-name="LINE">
          <line class="cls-3" x1="144.56" y1="126.72" x2="147.18" y2="130.4"/>
        </g>
        <g id="LINE-17" data-name="LINE">
          <line class="cls-3" x1="144.96" y1="126.85" x2="147.58" y2="130.53"/>
        </g>
        <g id="LWPOLYLINE-4" data-name="LWPOLYLINE">
          <polyline class="cls-3" points="111.34 139.28 111.43 138.84 111.41 137.94 111.13 137.03 110.68 136.26"/>
        </g>
        <g id="LINE-18" data-name="LINE">
          <line class="cls-3" x1="111.34" y1="139.28" x2="111.06" y2="140.27"/>
        </g>
        <g id="LWPOLYLINE-5" data-name="LWPOLYLINE">
          <polyline class="cls-3" points="168.19 123.25 167.49 122.44 166.49 121.62 165.31 120.93 163.98 120.38 162.57 120 161.13 119.78 159.7 119.75 158.35 119.9 157.12 120.24 156.06 120.75 155.23 121.41 154.65 122.19 154.45 122.66"/>
        </g>
        <g id="LINE-19" data-name="LINE">
          <line class="cls-3" x1="157.67" y1="129.23" x2="155.03" y2="125.56"/>
        </g>
        <g id="LINE-20" data-name="LINE">
          <line class="cls-3" x1="158.32" y1="128.67" x2="155.68" y2="125"/>
        </g>
        <g id="LINE-21" data-name="LINE">
          <line class="cls-3" x1="118.04" y1="131.61" x2="118.14" y2="131.29"/>
        </g>
        <g id="LINE-22" data-name="LINE">
          <line class="cls-3" x1="120.68" y1="135.26" x2="120.78" y2="134.96"/>
        </g>
        <g id="LINE-23" data-name="LINE">
          <line class="cls-3" x1="117.56" y1="128.4" x2="117.2" y2="129.44"/>
        </g>
        <g id="LINE-24" data-name="LINE">
          <line class="cls-3" x1="167.79" y1="123.11" x2="170.41" y2="126.79"/>
        </g>
        <g id="LINE-25" data-name="LINE">
          <line class="cls-3" x1="168.19" y1="123.24" x2="170.81" y2="126.92"/>
        </g>
        <g id="LINE-26" data-name="LINE">
          <line class="cls-3" x1="130.45" y1="138.62" x2="130.51" y2="138.42"/>
        </g>
        <g id="LWPOLYLINE-6" data-name="LWPOLYLINE">
          <polyline class="cls-3" points="148.23 133.55 148.28 133.34 148.33 132.38 148.06 131.39 147.58 130.53"/>
        </g>
        <g id="LINE-27" data-name="LINE">
          <line class="cls-3" x1="148.23" y1="133.54" x2="147.95" y2="134.53"/>
        </g>
        <g id="LINE-28" data-name="LINE">
          <line class="cls-3" x1="144.11" y1="136.51" x2="144.18" y2="136.29"/>
        </g>
        <g id="LINE-29" data-name="LINE">
          <line class="cls-3" x1="154.93" y1="125.87" x2="155.03" y2="125.56"/>
        </g>
        <g id="LINE-30" data-name="LINE">
          <line class="cls-3" x1="157.57" y1="129.52" x2="157.67" y2="129.23"/>
        </g>
        <g id="LINE-31" data-name="LINE">
          <line class="cls-3" x1="154.45" y1="122.66" x2="154.1" y2="123.71"/>
        </g>
        <g id="LWPOLYLINE-7" data-name="LWPOLYLINE">
          <polyline class="cls-3" points="171.46 129.93 171.55 129.49 171.53 128.59 171.25 127.69 170.81 126.92"/>
        </g>
        <g id="LINE-32" data-name="LINE">
          <line class="cls-3" x1="171.46" y1="129.93" x2="171.19" y2="130.91"/>
        </g>
        <g id="ARC">
          <path class="cls-3" d="M110.46,136.4c-.06-.09-.11-.18-.18-.27"/>
        </g>
        <g id="ARC-2" data-name="ARC">
          <path class="cls-3" d="M111.26,137.25s-.04-.09-.07-.13"/>
        </g>
        <g id="ARC-3" data-name="ARC">
          <path class="cls-3" d="M111.48,139.54c.06-.18.1-.37.12-.57"/>
        </g>
        <g id="ARC-4" data-name="ARC">
          <path class="cls-3" d="M117.4,128.3c-.04.1-.08.21-.11.32"/>
        </g>
        <g id="ARC-5" data-name="ARC">
          <path class="cls-3" d="M94.17,131.9c-.05.11-.08.21-.12.32"/>
        </g>
        <g id="ARC-6" data-name="ARC">
          <path class="cls-3" d="M147.35,130.67c-.06-.09-.12-.18-.18-.27"/>
        </g>
        <g id="ARC-7" data-name="ARC">
          <path class="cls-3" d="M170.58,127.05c-.06-.09-.11-.18-.18-.27"/>
        </g>
        <g id="ARC-8" data-name="ARC">
          <path class="cls-3" d="M148.13,131.47s-.03-.07-.05-.1"/>
        </g>
        <g id="ARC-9" data-name="ARC">
          <path class="cls-3" d="M147.77,131.66s-.01-.06-.02-.09"/>
        </g>
        <g id="ARC-10" data-name="ARC">
          <path class="cls-3" d="M154.33,122.47s-.04.08-.06.13"/>
        </g>
        <g id="ARC-11" data-name="ARC">
          <path class="cls-3" d="M171.55,130.35s.04-.1.06-.15"/>
        </g>
        <g id="ARC-12" data-name="ARC">
          <path class="cls-3" d="M148.31,133.96c.02-.05.04-.1.06-.15"/>
        </g>
        <g id="ARC-13" data-name="ARC">
          <path class="cls-3" d="M154.28,122.6c-.04.09-.07.19-.1.29"/>
        </g>
        <g id="ARC-14" data-name="ARC">
          <path class="cls-3" d="M148.37,133.81c.02-.07.05-.15.06-.23"/>
        </g>
        <g id="SPLINE">
          <path class="cls-3" d="M121.73,125.59s.07,0,.1.02c.02.01.03.02.05.04.02.02.03.04.05.06"/>
        </g>
        <g id="SPLINE-2" data-name="SPLINE">
          <path class="cls-3" d="M95.55,134.34c-.18-.25-.34-.52-.45-.81-.11-.26-.18-.54-.2-.82-.02-.26,0-.53.05-.79s.17-.51.31-.74c.15-.24.34-.46.55-.65.24-.21.5-.39.78-.54.31-.17.64-.3.97-.41.37-.12.75-.2,1.13-.26.41-.06.83-.1,1.25-.11s.87.01,1.31.06c.89.09,1.76.29,2.6.58.41.14.81.31,1.19.5.37.18.72.39,1.06.62.31.21.61.45.89.71.25.24.48.49.68.77"/>
        </g>
        <g id="SPLINE-3" data-name="SPLINE">
          <path class="cls-3" d="M110.46,136.4c.05.08.09.15.13.23.11.22.21.46.27.7"/>
        </g>
        <g id="SPLINE-4" data-name="SPLINE">
          <path class="cls-3" d="M110.86,137.33s.02.07.02.11c.02.11.04.21.05.32"/>
        </g>
        <g id="SPLINE-5" data-name="SPLINE">
          <path class="cls-3" d="M110.93,137.76c.02.23,0,.46-.04.69s-.13.45-.23.65c-.11.21-.26.41-.42.59-.18.19-.38.36-.6.51-.24.16-.49.3-.76.42-.29.13-.59.23-.9.32-.33.09-.67.16-1.01.2-.36.05-.72.08-1.09.08-.77.01-1.53-.06-2.29-.2-.76-.15-1.5-.37-2.21-.67-.34-.14-.67-.3-.99-.48-.3-.17-.6-.36-.88-.56-.5-.37-.96-.8-1.32-1.3"/>
        </g>
        <g id="SPLINE-6" data-name="SPLINE">
          <path class="cls-3" d="M118.78,130.73c-.18-.25-.34-.52-.45-.81-.11-.26-.18-.54-.2-.82-.02-.26,0-.53.05-.79s.17-.51.31-.74c.15-.24.34-.46.55-.65.24-.21.5-.39.78-.54.31-.17.64-.3.97-.41.37-.12.75-.2,1.13-.26"/>
        </g>
        <g id="SPLINE-7" data-name="SPLINE">
          <path class="cls-3" d="M135.59,123.59c.84-.13,1.7-.14,2.55-.05.89.09,1.76.29,2.6.58.41.14.81.31,1.19.5.37.18.72.39,1.06.62.31.21.61.45.89.71.25.24.48.49.68.77"/>
        </g>
        <g id="SPLINE-8" data-name="SPLINE">
          <path class="cls-3" d="M147.35,130.67c.04.07.09.15.13.22.11.22.2.44.26.68"/>
        </g>
        <g id="SPLINE-9" data-name="SPLINE">
          <path class="cls-3" d="M147.77,131.66c.05.21.07.43.06.65s-.04.42-.1.62-.15.4-.27.58c-.12.19-.26.37-.42.53-.17.17-.37.33-.57.46-.22.15-.46.28-.7.38-.55.25-1.14.4-1.74.49"/>
        </g>
        <g id="SPLINE-10" data-name="SPLINE">
          <path class="cls-3" d="M130.36,137.51c-.84.13-1.69.14-2.54.05-.88-.09-1.76-.28-2.59-.58-.41-.14-.8-.31-1.19-.5-.37-.18-.72-.38-1.06-.61-.31-.21-.61-.45-.88-.7-.25-.24-.48-.49-.68-.77"/>
        </g>
        <g id="SPLINE-11" data-name="SPLINE">
          <path class="cls-3" d="M155.68,125c-.18-.25-.34-.52-.45-.81-.11-.26-.18-.54-.2-.82-.02-.26,0-.53.05-.79s.17-.51.31-.74c.15-.24.34-.46.55-.65.24-.21.5-.39.78-.54.31-.17.64-.3.97-.41.37-.12.75-.2,1.13-.26.41-.06.83-.1,1.25-.11s.87.01,1.31.06c.89.09,1.76.29,2.6.58.41.14.81.31,1.19.5.37.18.72.39,1.06.62.31.21.61.45.89.71.25.24.48.49.68.77"/>
        </g>
        <g id="SPLINE-12" data-name="SPLINE">
          <path class="cls-3" d="M170.58,127.05c.05.08.09.15.13.23.11.22.21.46.27.7"/>
        </g>
        <g id="SPLINE-13" data-name="SPLINE">
          <path class="cls-3" d="M170.98,127.99s.02.07.02.11c.02.11.04.21.05.32"/>
        </g>
        <g id="SPLINE-14" data-name="SPLINE">
          <path class="cls-3" d="M171.05,128.42c.02.23,0,.46-.04.69s-.13.45-.23.65c-.11.21-.26.41-.42.59-.18.19-.38.36-.6.51-.24.16-.49.3-.76.42-.29.13-.59.23-.9.32-.33.09-.67.16-1.01.2-.36.05-.72.08-1.09.08-.77.01-1.53-.06-2.29-.2s-1.5-.37-2.21-.67c-.34-.14-.67-.3-.99-.48-.3-.17-.6-.36-.88-.56-.5-.37-.96-.8-1.32-1.3"/>
        </g>
        <g id="SPLINE-15" data-name="SPLINE">
          <path class="cls-3" d="M110.68,136.26s-.04-.05-.07-.07c-.03-.02-.06-.04-.09-.05-.08-.02-.16-.03-.24-.01"/>
        </g>
        <g id="SPLINE-16" data-name="SPLINE">
          <path class="cls-3" d="M108.07,132.59s-.04-.05-.07-.07c-.03-.02-.06-.04-.09-.05-.08-.02-.16-.03-.24-.01"/>
        </g>
        <g id="SPLINE-17" data-name="SPLINE">
          <path class="cls-3" d="M147.58,130.53s-.04-.05-.07-.07c-.03-.02-.06-.04-.09-.05-.08-.02-.16-.03-.24-.01"/>
        </g>
        <g id="SPLINE-18" data-name="SPLINE">
          <path class="cls-3" d="M144.96,126.85s-.04-.05-.07-.07c-.03-.02-.06-.04-.09-.05-.08-.02-.16-.03-.24-.01"/>
        </g>
        <g id="SPLINE-19" data-name="SPLINE">
          <path class="cls-3" d="M111.34,139.28c-.06.23-.16.44-.28.65-.13.21-.28.41-.45.59-.19.19-.39.36-.61.52-.24.17-.5.31-.76.43-.6.27-1.24.45-1.88.56-.73.12-1.47.15-2.2.11-.78-.04-1.55-.16-2.3-.35s-1.47-.44-2.17-.76c-.33-.16-.65-.33-.97-.52-.3-.18-.58-.38-.86-.59-.49-.38-.94-.83-1.3-1.34"/>
        </g>
        <g id="SPLINE-20" data-name="SPLINE">
          <path class="cls-3" d="M155.03,125.56c-.16-.23-.31-.47-.42-.73-.11-.24-.19-.48-.24-.74-.05-.24-.07-.48-.05-.73s.06-.47.13-.7"/>
        </g>
        <g id="SPLINE-21" data-name="SPLINE">
          <path class="cls-3" d="M94.91,134.9c-.16-.23-.31-.47-.42-.73-.11-.24-.19-.48-.24-.74-.05-.24-.07-.48-.05-.73s.06-.47.13-.7"/>
        </g>
        <g id="SPLINE-22" data-name="SPLINE">
          <path class="cls-3" d="M130.51,138.42c-.45.07-.9.11-1.35.11s-.95-.01-1.42-.06c-.96-.1-1.91-.32-2.82-.64-.44-.16-.88-.34-1.29-.55s-.78-.43-1.15-.68c-.34-.23-.66-.49-.96-.78-.27-.26-.52-.54-.74-.85"/>
        </g>
        <g id="SPLINE-23" data-name="SPLINE">
          <path class="cls-3" d="M118.14,131.29c-.16-.23-.31-.47-.42-.73-.11-.24-.19-.48-.24-.74-.05-.24-.07-.48-.05-.73s.06-.47.13-.7"/>
        </g>
        <g id="SPLINE-24" data-name="SPLINE">
          <path class="cls-3" d="M148.23,133.55c-.05.17-.12.34-.2.5s-.18.32-.3.46c-.24.31-.55.58-.88.81-.38.25-.79.45-1.21.61-.48.17-.97.29-1.48.37"/>
        </g>
        <g id="SPLINE-25" data-name="SPLINE">
          <path class="cls-3" d="M170.81,126.92s-.04-.05-.07-.07c-.03-.02-.06-.04-.09-.05-.08-.02-.16-.03-.24-.01"/>
        </g>
        <g id="SPLINE-26" data-name="SPLINE">
          <path class="cls-3" d="M168.19,123.24s-.04-.05-.07-.07c-.03-.02-.06-.04-.09-.05-.08-.02-.16-.03-.24-.01"/>
        </g>
        <g id="SPLINE-27" data-name="SPLINE">
          <path class="cls-3" d="M135.39,123.47s.07,0,.1.02c.02.01.03.02.05.04.02.02.03.04.05.06"/>
        </g>
        <g id="SPLINE-28" data-name="SPLINE">
          <path class="cls-3" d="M171.46,129.93c-.06.23-.16.44-.28.65-.13.21-.28.41-.45.59-.19.19-.39.36-.61.52-.24.17-.5.31-.76.43-.6.27-1.24.45-1.88.56-.73.12-1.47.15-2.2.11-.78-.04-1.55-.16-2.3-.35s-1.47-.44-2.17-.76c-.33-.16-.65-.33-.97-.52-.3-.18-.58-.38-.86-.59-.49-.38-.94-.83-1.3-1.34"/>
        </g>
        <g id="SPLINE-29" data-name="SPLINE">
          <path class="cls-3" d="M154.18,122.88c-.06.22-.1.45-.1.68s.02.48.07.71c.12.51.36,1,.66,1.43"/>
        </g>
        <g id="SPLINE-30" data-name="SPLINE">
          <path class="cls-3" d="M117.28,128.62c-.06.22-.1.45-.1.69s.02.48.07.71c.12.51.36,1,.66,1.43"/>
        </g>
        <g id="SPLINE-31" data-name="SPLINE">
          <path class="cls-3" d="M94.05,132.22c-.06.22-.1.45-.1.68s.02.48.07.71c.12.51.36,1,.66,1.43"/>
        </g>
        <g id="LINE-33" data-name="LINE">
          <line class="cls-3" x1="154.81" y1="125.71" x2="157.44" y2="129.38"/>
        </g>
        <g id="SPLINE-32" data-name="SPLINE">
          <path class="cls-3" d="M157.44,129.38c.36.5.81.94,1.3,1.33.56.44,1.17.8,1.81,1.11.69.33,1.42.59,2.16.78s1.53.32,2.31.38,1.5.04,2.24-.06c.67-.09,1.33-.25,1.95-.5.28-.11.55-.24.81-.4.24-.14.46-.3.67-.48.19-.17.36-.35.51-.56.14-.19.26-.4.35-.62"/>
        </g>
        <g id="SPLINE-33" data-name="SPLINE">
          <path class="cls-3" d="M144.25,136.49c.48-.08.96-.19,1.42-.35.41-.14.82-.33,1.19-.56.33-.2.64-.45.9-.74.23-.26.43-.56.56-.88"/>
        </g>
        <g id="LINE-34" data-name="LINE">
          <line class="cls-3" x1="137.41" y1="137.55" x2="144.25" y2="136.49"/>
        </g>
        <g id="LINE-35" data-name="LINE">
          <line class="cls-3" x1="130.58" y1="138.61" x2="137.41" y2="137.55"/>
        </g>
        <g id="SPLINE-34" data-name="SPLINE">
          <path class="cls-3" d="M120.54,135.11c.47.65,1.09,1.2,1.76,1.66.78.53,1.63.94,2.52,1.25.94.33,1.92.55,2.91.65s1.91.09,2.86-.05"/>
        </g>
        <g id="SPLINE-35" data-name="SPLINE">
          <path class="cls-3" d="M97.32,138.71c.37.51.82.96,1.32,1.34.57.44,1.19.81,1.85,1.12.71.33,1.45.59,2.2.78s1.55.32,2.35.36c.75.05,1.51.02,2.26-.09.67-.1,1.33-.27,1.94-.54.27-.12.54-.26.79-.42.23-.15.45-.32.65-.51.18-.18.35-.37.49-.58.13-.2.24-.42.31-.64"/>
        </g>
        <g id="LINE-36" data-name="LINE">
          <line class="cls-3" x1="94.69" y1="135.04" x2="97.32" y2="138.71"/>
        </g>
        <g id="SPLINE-36" data-name="SPLINE">
          <path class="cls-3" d="M111.6,138.98c.03-.28.01-.58-.04-.86-.06-.3-.17-.6-.3-.87"/>
        </g>
        <g id="SPLINE-37" data-name="SPLINE">
          <path class="cls-3" d="M155.36,121.25c-.11.09-.22.18-.33.27-.29.27-.54.59-.7.94"/>
        </g>
        <g id="SPLINE-38" data-name="SPLINE">
          <path class="cls-3" d="M118.53,126.94c-.25.18-.49.39-.69.63-.18.22-.34.47-.45.73"/>
        </g>
        <g id="SPLINE-39" data-name="SPLINE">
          <path class="cls-3" d="M95.11,130.69c-.11.09-.21.18-.3.27-.27.27-.49.59-.64.93"/>
        </g>
        <g id="SPLINE-40" data-name="SPLINE">
          <path class="cls-3" d="M171.67,129.97c.08-.35.09-.73.03-1.09-.06-.39-.21-.77-.4-1.12"/>
        </g>
        <g id="SPLINE-41" data-name="SPLINE">
          <path class="cls-3" d="M148.44,133.59c.08-.34.09-.7.04-1.04-.05-.38-.18-.74-.35-1.07"/>
        </g>
        <g id="ELLIPSE">
          <path class="cls-3" d="M171.45,130.52c.03-.19.04-.38.03-.58"/>
        </g>
        <g id="ELLIPSE-2" data-name="ELLIPSE">
          <path class="cls-3" d="M148.22,134.17c.03-.2.05-.41.03-.62"/>
        </g>
        <g id="ELLIPSE-3" data-name="ELLIPSE">
          <path class="cls-3" d="M111.31,139.96c.04-.22.06-.45.04-.68"/>
        </g>
        <g id="ELLIPSE-4" data-name="ELLIPSE">
          <path class="cls-3" d="M154.46,122.69c-.12.16-.23.32-.31.49"/>
        </g>
        <g id="ELLIPSE-5" data-name="ELLIPSE">
          <path class="cls-3" d="M117.57,128.41c-.15.19-.27.39-.36.59"/>
        </g>
        <g id="ELLIPSE-6" data-name="ELLIPSE">
          <path class="cls-3" d="M94.33,132.03c-.13.17-.24.34-.33.52"/>
        </g>
      </g>
      <g>
        <path class="cls-2" d="M105.46,10.01L30.6,21.36s-22.25,2.06-12.23,20.34c10.02,18.27,40.08,71.62,40.08,71.62,0,0,6.34,15.18,27.26,12.08,18.57-2.75,66.84-10.13,77.48-11.76,2.21-.34,4.37-1,6.36-2.05,4.62-2.43,10.68-7.71,5.47-17.43-7.81-14.59-40.61-72.89-40.61-72.89,0,0-7.96-14.44-28.95-11.26Z"/>
        <path class="cls-3" d="M174.55,93.79c6.42,11.99-4.41,16.89-8.29,18.22-.72.24-1.46.42-2.21.52-24.27,3.52-48.39,7.23-72.66,10.82-8.03,1.19-11.35,1.74-15.78.95,0,0-4.65-.36-8.71-3.32-.42-.31-2.11-1.4-3.89-3.34-1.44-1.57-2.27-2.95-3.47-4.95-.84-1.4-1.06-1.98-2.2-4.06-.65-1.2-2.13-3.9-3.81-6.85-1.64-2.9-2.26-3.89-4.1-7.06-1.68-2.89-2.89-5.02-5.25-9.18-8.78-15.51-9.15-16.67-14.59-25.97-2.4-4.1-4.57-8.35-7.06-12.39,0,0-1.75-2.84-3.89-7.15-.93-1.87-1.1-2.36-1.23-2.75-.35-1.11-1.43-4.56.13-8.08,1.89-4.25,5.97-6.08,6.63-6.26"/>
      </g>
      <g>
        <g>
          <path class="cls-1" d="M97.23,86.7l4.66-17.23,11.57-1.92-8.68-15.17,16.8-2.62,8.34,15,15.7-2.5,8.63,14.97-15.91,2.68,9.12,15.79-16.43,2.66-9.04-15.75-24.76,4.1Z"/>
          <path class="cls-1" d="M107.27,24.7l-18.2,2.81-22.56,80.99,21.26-3.08,15.16-56.37,16.52-2.78-12.17-21.56Z"/>
        </g>
        <g>
          <path class="cls-4" d="M121.03,50.85l8,14.39.34.61.69-.11,15.02-2.39,7.57,13.12-14.49,2.44-1.42.24.72,1.25,8.4,14.53-14.32,2.32-8.69-15.15-.35-.6-.69.11-23.23,3.84,4.08-15.11,10.94-1.81,1.42-.24-.71-1.25-7.96-13.91,14.67-2.29M121.57,49.76l-16.8,2.62,8.68,15.17-11.57,1.92-4.66,17.23,24.76-4.1,9.04,15.75,16.43-2.66-9.12-15.79,15.91-2.68-8.63-14.97-15.7,2.5-8.34-15h0Z"/>
          <path class="cls-4" d="M106.73,25.8l11.13,19.72-15.11,2.54-.63.11-.17.62-14.99,55.74-19.09,2.76,21.98-78.89,16.88-2.6M107.27,24.7l-18.2,2.81-22.56,80.99,21.26-3.08,15.16-56.37,16.52-2.78-12.17-21.56h0Z"/>
        </g>
      </g>
    </g>
  </g>
</svg>