<?xml version="1.0" encoding="UTF-8"?>
<svg id="Layer_2" data-name="Layer 2" xmlns="http://www.w3.org/2000/svg" viewBox="0 0 102.07 161">
  <defs>
    <style>
      .cls-1, .cls-2 {
        fill: none;
        stroke: #fff;
        stroke-linecap: round;
        stroke-linejoin: round;
      }

      .cls-2 {
        stroke-width: .5px;
      }

      .cls-3 {
        fill: #fff;
        stroke-width: 0px;
      }
    </style>
  </defs>
  <g id="Layer_3" data-name="Layer 3">
    <g>
      <rect class="cls-1" x="18.04" y="38.87" width="65.55" height="65.55" rx="7.69" ry="7.69"/>
      <circle class="cls-1" cx="50.81" cy="128.12" r="12.83"/>
      <circle class="cls-2" cx="50.81" cy="128.11" r="15.12"/>
      <path class="cls-2" d="M3.72,32.63c-1.66,11.56-.67,28.62-.56,30.69.42,7.38.5,17.26.67,37.03.04,5.06.07,11.13,1.33,19.24,1.71,10.98,4.19,15.99,5,17.57,1.38,2.67,4.04,7.67,9.34,12.12,6.88,5.77,14.27,7.02,21.13,8.23,9.14,1.61,16.3.72,20.13.22,4-.53,7.42-1,11.67-2.78,1.96-.82,7.37-3.28,12.56-8.67,4.9-5.09,7.09-10.17,8.23-12.9,1.3-3.1,2.61-7.18,3.78-17.9.77-7.03.96-12.14,1.22-20.68.5-16.13.39-16.11.78-30.91.26-9.79.45-15.2-.11-23.35-.69-10.07-1.79-13.53-2.89-16.12-1.07-2.52-4.2-9.61-11.67-14.57-4.25-2.82-7.92-3.62-14.68-5.11-7.58-1.67-13.49-1.78-19.46-1.89-5.3-.1-9.59-.15-15.34.78-4.44.72-8.41,1.4-13.12,3.78-5.72,2.89-9.09,6.55-9.9,7.45-.97,1.09-3.89,4.49-6,9.78-1.41,3.54-1.9,6.49-2.11,8.01Z"/>
      <path class="cls-1" d="M1.5,31.19c-1.74,11.88-.7,29.43-.58,31.55.44,7.59.52,17.75.7,38.06.04,5.2.07,11.45,1.4,19.78,1.8,11.29,4.39,16.44,5.24,18.06,1.45,2.74,4.23,7.89,9.78,12.46,7.21,5.93,14.94,7.22,22.13,8.46,9.58,1.65,17.08.74,21.08.23,4.19-.54,7.77-1.03,12.23-2.86,2.05-.84,7.72-3.38,13.16-8.92,5.13-5.23,7.42-10.46,8.62-13.26,1.36-3.19,2.73-7.38,3.96-18.4.81-7.23,1-12.48,1.28-21.26.52-16.58.41-16.57.82-31.78.27-10.07.47-15.63-.12-24-.72-10.35-1.87-13.91-3.03-16.57-1.12-2.59-4.4-9.88-12.23-14.97-4.45-2.89-8.29-3.73-15.37-5.26-7.94-1.72-14.13-1.83-20.38-1.94-5.55-.1-10.05-.16-16.07.8-4.65.74-8.8,1.44-13.74,3.89-5.99,2.97-9.52,6.74-10.37,7.66-1.02,1.12-4.08,4.62-6.29,10.06-1.48,3.64-1.99,6.67-2.21,8.23Z"/>
      <g>
        <polygon class="cls-3" points="44.88 19.47 38.45 27.11 40.46 27.11 44.88 21.89 46.49 21.89 46.49 19.47 44.88 19.47"/>
        <polygon class="cls-3" points="44.88 22.29 44.88 23.9 43.68 23.9 42.3 25.5 44.88 25.5 44.88 27.11 46.49 27.11 46.49 25.5 48.1 25.5 48.1 23.9 46.49 23.9 46.49 22.29 44.88 22.29"/>
        <polygon class="cls-3" points="54.53 19.47 54.53 22.69 51.32 22.69 51.32 19.47 49.71 19.47 49.71 27.11 51.32 27.11 51.32 23.9 54.53 23.9 54.53 27.11 56.14 27.11 56.14 19.47 54.53 19.47"/>
        <path class="cls-3" d="M61.36,22.69v1.21h1.57c0,.05-.01.1-.02.14-.02.1-.04.19-.06.27-.02.08-.05.16-.08.22-.01.02-.02.04-.03.06,0,0,0,.01-.01.02-.03.07-.07.13-.11.19-.1.14-.22.27-.35.37-.04.03-.08.06-.13.08-.06.03-.12.06-.18.09-.09.04-.17.07-.27.09-.09.02-.19.04-.29.05-.07,0-.16.01-.24.01s-.15,0-.22-.01c-.1-.01-.2-.03-.29-.05-.09-.02-.18-.05-.27-.09-.06-.03-.13-.06-.19-.09-.06-.04-.13-.08-.18-.13-.12-.1-.23-.22-.32-.36-.03-.05-.06-.1-.09-.15,0,0,0-.01-.01-.02-.02-.04-.04-.08-.06-.13-.03-.06-.05-.13-.07-.21-.02-.08-.04-.16-.06-.25-.02-.09-.03-.19-.04-.3,0-.11-.01-.23-.02-.35v-.06h0v-.02h0v-.13s0-.08,0-.13c0-.08.01-.16.02-.24.01-.1.02-.2.04-.29.02-.09.04-.17.06-.25,0-.02.01-.03.02-.05.02-.07.05-.14.09-.2.08-.16.18-.3.3-.43.05-.05.1-.09.15-.13.12-.09.25-.17.38-.23.05-.02.1-.04.14-.05.08-.02.16-.04.24-.06.08-.02.17-.02.27-.03.03,0,.06,0,.1,0,.06,0,.12,0,.18,0,.09,0,.17.02.26.04.08.02.16.04.24.07.03,0,.05.02.08.03.06.03.12.06.18.09.13.07.25.16.35.27.05.05.1.11.14.17.03.04.06.09.09.13h1.74c-.02-.07-.04-.14-.06-.2-.16-.45-.41-.86-.73-1.21-.31-.32-.68-.58-1.1-.75-.43-.17-.87-.26-1.36-.26s-.93.09-1.35.26c-.41.17-.79.42-1.1.75-.32.35-.57.76-.73,1.21-.18.52-.24,1.07-.24,1.61,0,.79.12,1.47.41,2.04.27.55.7,1.01,1.22,1.32.53.31,1.13.46,1.78.46s1.25-.16,1.78-.46c.52-.31.95-.77,1.22-1.32.29-.57.41-1.25.41-2.04,0-.2,0-.4-.03-.6h-3.19Z"/>
      </g>
    </g>
  </g>
</svg>