<?xml version="1.0" encoding="UTF-8"?>
<svg id="Layer_2" data-name="Layer 2" xmlns="http://www.w3.org/2000/svg" viewBox="0 0 161 161">
  <defs>
    <style>
      .cls-1, .cls-2, .cls-3 {
        fill: none;
        stroke: #fff;
        stroke-miterlimit: 10;
      }

      .cls-2 {
        stroke-width: .5px;
      }

      .cls-4 {
        fill: #fff;
        stroke-width: 0px;
      }

      .cls-3 {
        stroke-width: .75px;
      }
    </style>
  </defs>
  <g id="Layer_3" data-name="Layer 3">
    <g>
      <rect class="cls-1" x=".5" y=".5" width="160" height="160" rx="37.59" ry="37.59"/>
      <path class="cls-3" d="M37.96,2.96h83.14c20.33,0,36.84,16.51,36.84,36.84v82.65c0,19.59-15.9,35.49-35.49,35.49H38.06c-19.37,0-35.1-15.73-35.1-35.1V37.96C2.96,18.64,18.64,2.96,37.96,2.96Z"/>
      <path class="cls-2" d="M157.94,91.7h-76.27v-47.31c0-5.38,4.36-9.74,9.74-9.74h65.79"/>
      <path class="cls-2" d="M2.96,91.7h76.27v-47.31c0-5.38-4.36-9.74-9.74-9.74H3.38"/>
      <path class="cls-2" d="M157.94,94.73h-76.27v57.4h10.57c2.23,0,4.39.74,6.15,2.1l4.79,3.7"/>
      <path class="cls-2" d="M2.96,94.73h76.27v57.4h-10.57c-2.23,0-4.39.74-6.15,2.1l-4.79,3.7"/>
      <g>
        <polygon class="cls-4" points="76.97 152.97 73.59 156.98 74.65 156.98 76.97 154.24 77.81 154.24 77.81 152.97 76.97 152.97"/>
        <polygon class="cls-4" points="76.97 154.45 76.97 155.29 76.33 155.29 75.61 156.14 76.97 156.14 76.97 156.98 77.81 156.98 77.81 156.14 78.65 156.14 78.65 155.29 77.81 155.29 77.81 154.45 76.97 154.45"/>
        <polygon class="cls-4" points="82.03 152.97 82.03 154.66 80.34 154.66 80.34 152.97 79.5 152.97 79.5 156.98 80.34 156.98 80.34 155.29 82.03 155.29 82.03 156.98 82.87 156.98 82.87 152.97 82.03 152.97"/>
        <path class="cls-4" d="M85.61,154.66v.63h.82s0,.05-.01.07c0,.05-.02.1-.03.14-.01.04-.03.08-.04.12,0,.01-.01.02-.02.03,0,0,0,0,0,0-.02.04-.04.07-.06.1-.05.07-.11.14-.19.19-.02.02-.04.03-.07.04-.03.02-.06.03-.09.05-.04.02-.09.04-.14.05-.05.01-.1.02-.15.03-.04,0-.08,0-.12,0s-.08,0-.12,0c-.05,0-.11-.01-.15-.03-.05-.01-.1-.03-.14-.05-.03-.01-.07-.03-.1-.05-.03-.02-.07-.04-.1-.07-.06-.05-.12-.12-.17-.19-.02-.03-.03-.05-.04-.08,0,0,0,0,0,0,0-.02-.02-.04-.03-.07-.01-.03-.03-.07-.04-.11-.01-.04-.02-.08-.03-.13,0-.05-.02-.1-.02-.16,0-.06,0-.12,0-.18v-.02h0v-.02h0v-.07s0-.04,0-.07c0-.04,0-.08,0-.12,0-.05.01-.1.02-.15,0-.05.02-.09.03-.13,0,0,0-.02,0-.02.01-.04.03-.07.04-.11.04-.08.09-.16.16-.23.02-.03.05-.05.08-.07.06-.05.13-.09.2-.12.03,0,.05-.02.08-.03.04-.01.08-.02.13-.03.04,0,.09-.01.14-.01.02,0,.03,0,.05,0,.03,0,.06,0,.09,0,.05,0,.09,0,.13.02.04,0,.08.02.13.04.01,0,.03,0,.04.02.03.01.06.03.1.05.07.04.13.09.18.14.03.03.05.06.07.09.02.02.03.05.05.07h.91s-.02-.07-.03-.11c-.08-.24-.21-.45-.38-.63-.16-.17-.36-.3-.57-.39-.22-.09-.46-.14-.71-.14s-.49.05-.71.14c-.22.09-.41.22-.57.39-.17.18-.3.4-.38.63-.1.27-.12.56-.12.85,0,.41.06.77.22,1.07.14.29.37.53.64.69.28.16.59.24.94.24s.66-.08.94-.24c.28-.16.5-.4.64-.69.15-.3.22-.66.22-1.07,0-.11,0-.21-.01-.32h-1.68Z"/>
      </g>
      <rect class="cls-2" x="48.13" y="8.28" width="64.64" height="21.7" rx="9.41" ry="9.41"/>
    </g>
  </g>
</svg>