<?xml version="1.0" encoding="UTF-8"?>
<svg id="Layer_2" data-name="Layer 2" xmlns="http://www.w3.org/2000/svg" viewBox="0 0 46.34 161">
  <defs>
    <style>
      .cls-1 {
        fill: none;
        stroke: #fff;
        stroke-miterlimit: 10;
      }

      .cls-2 {
        fill: #fff;
        stroke-width: 0px;
      }
    </style>
  </defs>
  <g id="Layer_3" data-name="Layer 3">
    <g>
      <g>
        <g>
          <path class="cls-1" d="M38.37,27.8c-1.39-1.15-5.78-8.73-6.64-10.02-.49-.73-.96-1.45-1.5-2.3-2.31-3.65-4.08-6.52-5.63-8.7,0,0,0,0-.01-.02-1.48-1.93-3.88-2.91-6.3-2.59-4.95.65-13.44,2.57-17.08,7.78-.73,1.05-.86,2.41-.3,3.56.17.36.38.79.64,1.33,1.45,2.99,9.75,18.93,11.06,23.01,1.2,3.73,1.64,6.77,1.99,9.63,1.39,11.45,1.29,19.77,1.29,19.77-.11,9.86-.16,19.72-.3,29.57-.12,8.08-.1,17.05-.08,34.97.01,7.8.15,14.6.2,19.88.01,1.25.7,2.4,1.81,2.96,1.64.82,4.73,1.44,10.54.57,0,0,9.2-1.17,13.15-4.7.73-.65,1.14-1.6,1.15-2.58l.44-37.33.27-26.04.15-8.67-.14-4.38s2.23-1.96,2.68-6.92-1.6-33.94-7.41-38.75Z"/>
          <path class="cls-1" d="M31.42,17.31s-17.62,1.12-23.49,11.96"/>
        </g>
        <path class="cls-1" d="M43.1,73.47c-2.12,1.95-5.24,1.39-7.55-.51-1.23-1.02-2.81-2.94-3.88-5.3-1.03-2.28-1.7-4.88-2.07-7.35-.53-3.55-1.21-8.78-1.21-8.78-.4-2.74-1.43-11.35-1.43-11.35-.32-3.06-.08-6.23.34-7.67.62-2.11,1.53-4.22,3.39-5.66.64-.5,1.33-.83,1.97-1.04,1.5-.5,3.14-.2,4.38.77.57.45,1.63,1.3,1.86,1.74"/>
        <path class="cls-1" d="M41.45,152.25s-7.25,14.91-23.25,4.64"/>
        <path class="cls-1" d="M43.22,77.72c-.64-.16-1.7-.34-2.96-.11-2.96.53-4.51,2.82-4.74,3.19-1.39,2.14-1.19,4.31-1.13,4.86.05.42.38,2.88,2.53,4.7,1.38,1.17,2.83,1.52,3.43,1.62,1.14.21,2.09.1,2.69-.01"/>
        <path class="cls-1" d="M.69,13.11S-1.49,4.23,8.84,1.27c10.32-2.96,13.52,3.62,13.52,3.62"/>
      </g>
      <g>
        <polygon class="cls-2" points="27.46 127.78 33.96 133.26 33.96 131.55 29.52 127.78 29.52 126.42 27.46 126.42 27.46 127.78"/>
        <polygon class="cls-2" points="29.86 127.78 31.23 127.78 31.23 128.81 32.6 129.98 32.6 127.78 33.96 127.78 33.96 126.42 32.6 126.42 32.6 125.05 31.23 125.05 31.23 126.42 29.86 126.42 29.86 127.78"/>
        <polygon class="cls-2" points="27.46 119.57 30.2 119.57 30.2 122.31 27.46 122.31 27.46 123.68 33.96 123.68 33.96 122.31 31.23 122.31 31.23 119.57 33.96 119.57 33.96 118.21 27.46 118.21 27.46 119.57"/>
        <path class="cls-2" d="M30.2,113.76h1.03v-1.34s.08.01.12.02c.09.02.16.03.23.05.07.02.13.05.19.07.02,0,.04.02.05.03,0,0,.01,0,.02,0,.06.03.11.06.16.09.12.08.23.18.31.3.03.03.05.07.07.11.03.05.05.1.08.15.03.07.06.15.08.23.02.08.04.16.05.25,0,.06.01.13.01.2s0,.13,0,.19c0,.09-.02.17-.04.25-.02.08-.05.15-.08.23-.02.05-.05.11-.08.16-.03.05-.07.11-.11.15-.09.1-.19.2-.31.27-.04.03-.08.05-.13.07,0,0-.01,0-.02,0-.03.02-.07.03-.11.05-.05.02-.11.04-.18.06-.07.02-.14.03-.21.05-.08.01-.16.03-.26.03-.09,0-.19.01-.3.01h-.17s-.07,0-.11,0c-.07,0-.14,0-.2-.01-.09,0-.17-.02-.25-.04-.08-.02-.15-.03-.22-.05-.01,0-.03,0-.04-.01-.06-.02-.12-.05-.17-.07-.13-.07-.26-.15-.37-.25-.04-.04-.08-.08-.11-.13-.08-.1-.14-.21-.19-.33-.02-.04-.03-.08-.04-.12-.02-.07-.04-.13-.05-.21-.01-.07-.02-.15-.02-.23,0-.03,0-.05,0-.08,0-.05,0-.1,0-.15,0-.08.02-.15.03-.22.01-.07.03-.14.06-.2,0-.02.02-.04.03-.07.02-.05.05-.1.08-.15.06-.11.14-.21.23-.3.05-.04.1-.08.15-.12.04-.03.08-.05.11-.08v-1.48c-.06.02-.12.03-.17.05-.38.13-.73.35-1.03.62-.28.26-.49.58-.63.93-.14.36-.22.74-.22,1.16s.08.79.22,1.15c.14.35.36.67.63.93.29.28.65.49,1.03.62.44.15.91.2,1.37.2.67,0,1.25-.1,1.73-.35.47-.23.86-.59,1.12-1.04.26-.45.39-.96.39-1.52s-.14-1.07-.39-1.52c-.26-.45-.65-.81-1.12-1.04-.49-.25-1.06-.35-1.73-.35-.17,0-.34,0-.51.02v2.72Z"/>
      </g>
    </g>
  </g>
</svg>