<?xml version="1.0" encoding="utf-8"?>
<!-- Generator: Adobe Illustrator 28.1.0, SVG Export Plug-In . SVG Version: 6.00 Build 0)  -->
<svg version="1.1" xmlns="http://www.w3.org/2000/svg" xmlns:xlink="http://www.w3.org/1999/xlink" x="0px" y="0px"
	 viewBox="0 0 75 75" style="enable-background:new 0 0 75 75;" xml:space="preserve">
<style type="text/css">
	.st0{fill:#191B1C;}
	.st1{fill:#FFFFFF;}
	.st2{display:none;}
	.st3{display:inline;}
	.st4{font-family:'ProductSans-Bold';}
	.st5{font-size:61.226px;}
</style>
<g id="Instagram">
	<g id="Instagram_icon_00000102514675075523039520000017648822062129180592_">
		<path class="st0" d="M52.41,73H22.59C11.22,73,2,63.78,2,52.41V22.59C2,11.22,11.22,2,22.59,2h29.82C63.78,2,73,11.22,73,22.59
			v29.82C73,63.78,63.78,73,52.41,73z"/>
		<path class="st1" d="M54.85,59.41H20.15c-2.44,0-4.41-1.98-4.41-4.41V19.41c0-2.44,1.98-4.41,4.41-4.41h34.69
			c2.44,0,4.41,1.98,4.41,4.41V55C59.26,57.43,57.28,59.41,54.85,59.41z"/>
		<circle class="st0" cx="37.5" cy="37.43" r="7.87"/>
		<path class="st0" d="M55.08,32.55h-6.23c0.18,0.49,2.31,6.67-1.63,11.94c-0.47,0.63-4.19,4.73-9.72,4.88
			c-5.53-0.15-9.25-4.25-9.72-4.88c-3.94-5.27-1.8-11.45-1.63-11.94h-6.23l0.05,16.82c0,0.08,0,0.21,0,0.35
			c0.02,0.75,0.05,2.59,0.92,3.72c1.2,1.56,3.69,1.38,3.96,1.36l12.6,0.02v0l0.05,0l0.04,0v0l12.6-0.02
			c0.27,0.02,2.76,0.21,3.96-1.36c0.87-1.13,0.91-2.97,0.92-3.72c0-0.15,0-0.27,0-0.35L55.08,32.55z"/>
		<path class="st0" d="M55.23,27.75h-6.47c-0.28,0-0.52-0.23-0.52-0.52v-6.47c0-0.28,0.23-0.52,0.52-0.52h6.47
			c0.28,0,0.52,0.23,0.52,0.52v6.47C55.75,27.52,55.52,27.75,55.23,27.75z"/>
	</g>
</g>
<g id="Linkedin" class="st2">
	<g id="LinkedIn_icon_00000000181790238782603840000011259426979967208112_" class="st3">
		<path class="st0" d="M2,22.59C2,11.22,11.22,2,22.59,2h29.82C63.78,2,73,11.22,73,22.59v29.82C73,63.78,63.78,73,52.41,73H22.59
			C11.22,73,2,63.78,2,52.41"/>
		<g id="LinkedIn_00000067233595934829566310000002631265346573527225_">
			<text transform="matrix(1 0 0 1 12.0004 55.0411)" class="st1 st4 st5">in</text>
		</g>
	</g>
</g>
<g id="Twitter" class="st2">
	<g id="Twitter_icon_00000129169115334141636520000002058780013318612623_" class="st3">
		<path class="st0" d="M2,22.59C2,11.22,11.22,2,22.59,2h29.82C63.78,2,73,11.22,73,22.59v29.82C73,63.78,63.78,73,52.41,73H22.59
			C11.22,73,2,63.78,2,52.41"/>
		<g id="Twitter_00000132780691153657477880000016571192854126580925_">
			<path class="st1" d="M59.5,23.84c-1.09,1.72-2.49,3.22-4.14,4.4c-0.11,0.08-0.23,0.16-0.34,0.24c0.03,0.49,0.04,0.98,0.04,1.48
				c0,0.7-0.03,1.4-0.08,2.08c-1.06,13.01-11.95,23.23-25.23,23.23c-5.28,0-10.19-1.62-14.25-4.39c1.05,0.22,2.15,0.34,3.27,0.34
				c3.93,0,7.53-1.44,10.3-3.81c-3.85-0.21-7.09-2.71-8.37-6.16c0.57,0.11,1.15,0.16,1.74,0.16c0.8,0,1.57-0.1,2.31-0.28
				c-1.81-0.45-3.41-1.42-4.64-2.74c-1.53-1.64-2.48-3.83-2.54-6.23c1.13,0.62,2.4,1.01,3.75,1.13c0.08,0.01,0.16,0.01,0.24,0.02
				c-0.06-0.04-0.12-0.09-0.17-0.13c-1.49-1.15-2.62-2.73-3.22-4.56c-0.3-0.93-0.47-1.92-0.47-2.95c0-0.72,0.08-1.42,0.23-2.09
				c0.19-0.85,0.5-1.66,0.9-2.41c0.42,0.53,0.87,1.05,1.34,1.55c0.47,0.5,0.95,0.98,1.46,1.44c1.97,1.79,4.23,3.28,6.7,4.38
				c0.54,0.24,1.08,0.46,1.63,0.66h0c0.57,0.21,1.14,0.39,1.73,0.56c0.67,0.19,1.35,0.36,2.05,0.49c0.53,0.11,1.07,0.19,1.62,0.26
				c0.06,0.01,0.12,0.02,0.18,0.02c0.31,0.04,0.62,0.07,0.93,0.1c0.02,0,0.05,0,0.07,0.01c-0.07-0.47-0.11-0.95-0.11-1.43
				c0-0.41,0.03-0.82,0.08-1.22c0.36-2.81,1.96-5.24,4.22-6.73c0.28-0.18,0.57-0.35,0.87-0.51c0.11-0.05,0.21-0.11,0.32-0.16
				c1.21-0.56,2.57-0.88,4-0.88c2.63,0,5.01,1.07,6.73,2.8c0.41-0.07,0.82-0.16,1.21-0.26c1.59-0.41,3.09-1.06,4.45-1.92
				c-0.31,0.89-0.74,1.73-1.29,2.48l0,0c-0.66,0.91-1.48,1.7-2.42,2.33c-0.03,0.02-0.05,0.03-0.08,0.05
				c-0.03,0.02-0.06,0.04-0.1,0.06c0.04,0,0.08-0.01,0.12-0.01c0.02,0,0.05-0.01,0.07-0.01C56.35,25.04,57.99,24.56,59.5,23.84z"/>
		</g>
	</g>
</g>
<g id="Facebook" class="st2">
	<g id="Facebook_icon_00000183939603493609757610000006027257878838505353_" class="st3">
		<g>
			<path class="st0" d="M2,22.59C2,11.22,11.22,2,22.59,2h29.82C63.78,2,73,11.22,73,22.59v29.82C73,63.78,63.78,73,52.41,73H22.59
				C11.22,73,2,63.78,2,52.41"/>
		</g>
		<g id="Facebook_00000081629374348422247880000014400650449227341965_">
			<path class="st1" d="M41.33,25.26v5.82l7.56-0.05l-0.72,8.62l-6.84,0.05v19.73h-8.75V39.65h-6.47v-8.58h6.4V24.5
				c0-4.83,3.92-8.75,8.75-8.92h7.6v7.21h-4.95C42.73,22.85,41.33,23.72,41.33,25.26z"/>
		</g>
	</g>
</g>
<g id="Youtube" class="st2">
	<g id="YouTube_icon_00000070800614886479787400000014726064709585132694_" class="st3">
		<g>
			<path class="st0" d="M2,22.59C2,11.22,11.22,2,22.59,2h29.82C63.78,2,73,11.22,73,22.59v29.82C73,63.78,63.78,73,52.41,73H22.59
				C11.22,73,2,63.78,2,52.41"/>
		</g>
		<g>
			<path class="st1" d="M50.94,53.42H24.06c-4.56,0-8.26-3.7-8.26-8.26V29.84c0-4.56,3.7-8.26,8.26-8.26h26.88
				c4.56,0,8.26,3.7,8.26,8.26v15.33C59.2,49.73,55.5,53.42,50.94,53.42z"/>
			<polygon class="st0" points="33,30.76 33,44.24 45.05,37.5 			"/>
		</g>
	</g>
</g>
</svg>
