<?xml version="1.0" encoding="utf-8"?>
<!-- Generator: Adobe Illustrator 28.1.0, SVG Export Plug-In . SVG Version: 6.00 Build 0)  -->
<svg version="1.1" id="Layer_1" xmlns="http://www.w3.org/2000/svg" xmlns:xlink="http://www.w3.org/1999/xlink" x="0px" y="0px"
	 viewBox="0 0 300 300" style="enable-background:new 0 0 300 300;" xml:space="preserve">
<style type="text/css">
	.st0{fill:#1A1B1D;}
</style>
<g>
	<g>
		<path class="st0" d="M105.92,155.72c-0.12,0-0.25-0.04-0.34-0.14c-0.2-0.19-0.21-0.5-0.02-0.71c1.08-1.15,2.93-3.61,3.24-7.18
			c0.41-4.72-2.2-8.11-3.01-9.03c-0.18-0.21-0.16-0.52,0.05-0.71c0.21-0.18,0.52-0.16,0.71,0.05c0.88,1,3.71,4.66,3.26,9.78
			c-0.34,3.87-2.34,6.53-3.51,7.78C106.19,155.67,106.05,155.72,105.92,155.72z"/>
	</g>
	<g>
		<path class="st0" d="M113.53,161.1c-0.11,0-0.22-0.03-0.31-0.11c-0.22-0.17-0.26-0.48-0.09-0.7c1.43-1.83,4.73-6.85,4.55-13.79
			c-0.17-6.35-3.09-10.87-4.82-12.99c-0.17-0.21-0.14-0.53,0.07-0.7c0.21-0.17,0.53-0.14,0.7,0.07c1.81,2.22,4.87,6.95,5.04,13.6
			c0.18,7.01-2.91,12.05-4.76,14.43C113.83,161.03,113.68,161.1,113.53,161.1z"/>
	</g>
	<g>
		<path class="st0" d="M89.88,172.63c-0.06,0-0.12-0.01-0.18-0.03c-0.19-0.07-0.32-0.26-0.32-0.46l-0.22-22.67l-12.45,12.8
			c-0.19,0.2-0.51,0.2-0.71,0.01c-0.2-0.19-0.2-0.51-0.01-0.71l13.15-13.52l0-0.18l-13.13-12.09c-0.2-0.19-0.22-0.5-0.03-0.71
			c0.19-0.2,0.5-0.22,0.71-0.03l12.44,11.45l-0.21-21.39c0-0.19,0.11-0.37,0.28-0.46c0.17-0.08,0.38-0.06,0.53,0.07l12.62,10.4
			c0.11,0.09,0.17,0.22,0.18,0.36c0.01,0.14-0.04,0.28-0.14,0.38l-11.73,12.06l11.71,10.78c0.1,0.09,0.16,0.22,0.16,0.35
			c0.01,0.13-0.04,0.26-0.13,0.36l-12.17,13.07C90.15,172.58,90.01,172.63,89.88,172.63z M90.15,148.79l0.21,22.08l10.97-11.79
			L90.15,148.79z M89.94,126.17l0.2,20.86l11.17-11.49L89.94,126.17z"/>
	</g>
	<g>
		<path class="st0" d="M215.71,197.26H149.8V95.46h64.98l0,0.5L215.71,197.26z M150.8,196.26h63.9l-0.91-99.8H150.8V196.26z"/>
	</g>
	<g>
		<path class="st0" d="M220.22,218.95h-74.93c-1.67,0-3.03-1.36-3.03-3.03V84.75c0-1.67,1.36-3.03,3.03-3.03h73.61
			c1.66,0,3.02,1.35,3.03,3l1.32,131.16c0.01,0.82-0.3,1.58-0.88,2.17C221.8,218.63,221.04,218.95,220.22,218.95z M145.29,82.72
			c-1.12,0-2.03,0.91-2.03,2.03v131.16c0,1.12,0.91,2.03,2.03,2.03h74.93c0.55,0,1.06-0.21,1.44-0.6s0.59-0.9,0.59-1.45
			l-1.32-131.16c-0.01-1.11-0.92-2.01-2.03-2.01H145.29z"/>
	</g>
	<g>
		<path class="st0" d="M182.76,214.46c-3.6,0-6.53-2.93-6.53-6.53c0-3.6,2.93-6.53,6.53-6.53c3.6,0,6.53,2.93,6.53,6.53
			C189.29,211.53,186.36,214.46,182.76,214.46z M182.76,202.4c-3.05,0-5.53,2.48-5.53,5.53s2.48,5.53,5.53,5.53s5.53-2.48,5.53-5.53
			S185.81,202.4,182.76,202.4z"/>
	</g>
	<g>
		<path class="st0" d="M166.17,152.01h-1.85l5.34-14.55h1.82l5.34,14.55h-1.85l-4.35-12.24h-0.11L166.17,152.01z M166.85,146.33
			h7.44v1.56h-7.44V146.33z"/>
		<path class="st0" d="M178.86,156.1v-15h1.62v1.73h0.2c0.12-0.19,0.29-0.43,0.51-0.73s0.54-0.56,0.95-0.8
			c0.41-0.23,0.98-0.35,1.69-0.35c0.92,0,1.73,0.23,2.43,0.69s1.25,1.11,1.64,1.95s0.59,1.84,0.59,2.98c0,1.16-0.2,2.16-0.59,3
			c-0.39,0.85-0.94,1.5-1.63,1.96c-0.7,0.46-1.5,0.69-2.41,0.69c-0.7,0-1.26-0.12-1.68-0.35c-0.42-0.23-0.75-0.5-0.97-0.8
			s-0.4-0.55-0.53-0.75h-0.14v5.77H178.86z M180.51,146.55c0,0.82,0.12,1.55,0.36,2.18c0.24,0.63,0.59,1.12,1.06,1.47
			s1.03,0.53,1.7,0.53c0.7,0,1.29-0.19,1.76-0.56c0.47-0.37,0.83-0.87,1.07-1.51s0.36-1.34,0.36-2.11c0-0.77-0.12-1.46-0.35-2.08
			s-0.59-1.11-1.06-1.47c-0.47-0.36-1.06-0.54-1.77-0.54c-0.68,0-1.25,0.17-1.72,0.51c-0.46,0.34-0.81,0.82-1.05,1.44
			C180.63,145.03,180.51,145.74,180.51,146.55z"/>
		<path class="st0" d="M191.05,156.1v-15h1.62v1.73h0.2c0.12-0.19,0.29-0.43,0.51-0.73s0.54-0.56,0.95-0.8
			c0.41-0.23,0.98-0.35,1.69-0.35c0.92,0,1.73,0.23,2.43,0.69s1.25,1.11,1.64,1.95s0.59,1.84,0.59,2.98c0,1.16-0.2,2.16-0.59,3
			c-0.39,0.85-0.94,1.5-1.63,1.96c-0.7,0.46-1.5,0.69-2.41,0.69c-0.7,0-1.26-0.12-1.68-0.35c-0.42-0.23-0.75-0.5-0.97-0.8
			s-0.4-0.55-0.53-0.75h-0.14v5.77H191.05z M192.7,146.55c0,0.82,0.12,1.55,0.36,2.18c0.24,0.63,0.59,1.12,1.06,1.47
			s1.03,0.53,1.7,0.53c0.7,0,1.29-0.19,1.76-0.56c0.47-0.37,0.83-0.87,1.07-1.51s0.36-1.34,0.36-2.11c0-0.77-0.12-1.46-0.35-2.08
			s-0.59-1.11-1.06-1.47c-0.47-0.36-1.06-0.54-1.77-0.54c-0.68,0-1.25,0.17-1.72,0.51c-0.46,0.34-0.81,0.82-1.05,1.44
			C192.82,145.03,192.7,145.74,192.7,146.55z"/>
	</g>
</g>
</svg>
