<svg xmlns="http://www.w3.org/2000/svg" viewBox="0 0 43.52 44.41" class="w-[35px]" data-v-0a6223fd=""><path fill="currentColor" d="M39.11,0H4.41C1.98,0,0,1.98,0,4.41v35.58c0,2.44,1.98,4.41,4.41,4.41h34.69c2.44,0,4.41-1.98,4.41-4.41V4.41c0-2.44-1.98-4.41-4.41-4.41ZM21.76,14.57c4.35,0,7.87,3.52,7.87,7.87s-3.52,7.87-7.87,7.87-7.87-3.52-7.87-7.87,3.52-7.87,7.87-7.87ZM39.29,34.73c-.02.75-.05,2.59-.92,3.72-1.2,1.56-3.69,1.38-3.96,1.36l-12.6.02h-.1l-12.6-.02c-.27.02-2.76.21-3.96-1.36-.87-1.13-.91-2.97-.92-3.72,0-.15,0-.27,0-.35l-.05-16.82h6.23c-.18.49-2.31,6.67,1.63,11.94.47.63,4.19,4.73,9.72,4.88,5.53-.15,9.25-4.25,9.72-4.88,3.94-5.27,1.8-11.45,1.63-11.94h6.23l-.05,16.82c0,.08,0,.21,0,.35ZM40.01,12.23c0,.28-.23.52-.52.52h-6.47c-.28,0-.52-.23-.52-.52v-6.47c0-.28.23-.52.52-.52h6.47c.28,0,.52.23.52.52v6.47Z" data-v-0a6223fd=""></path></svg>