<svg xmlns="http://www.w3.org/2000/svg" viewBox="0 0 44 35.57" class="w-[35px]" data-v-0a6223fd=""><path fill="currentColor" d="M44,4.13c-1.09,1.72-2.49,3.22-4.14,4.4-.11.08-.23.16-.34.24.03.49.04.98.04,1.48,0,.7-.03,1.4-.08,2.08-1.06,13.01-11.95,23.23-25.23,23.23-5.28,0-10.19-1.62-14.25-4.39,1.05.22,2.15.34,3.27.34,3.93,0,7.53-1.44,10.3-3.81-3.85-.21-7.09-2.71-8.37-6.16.57.11,1.15.16,1.74.16.8,0,1.57-.1,2.31-.28-1.81-.45-3.41-1.42-4.64-2.74-1.53-1.64-2.48-3.83-2.54-6.23,1.13.62,2.4,1.01,3.75,1.13.08,0,.16.01.24.02-.06-.04-.12-.09-.17-.13-1.49-1.15-2.62-2.73-3.22-4.56-.3-.93-.47-1.92-.47-2.95,0-.72.08-1.42.23-2.09.19-.85.5-1.66.9-2.41.42.53.87,1.05,1.34,1.55.47.5.95.98,1.46,1.44,1.97,1.79,4.23,3.28,6.7,4.38.54.24,1.08.46,1.63.66h0c.57.21,1.14.39,1.73.56.67.19,1.35.36,2.05.49.53.11,1.07.19,1.62.26.06,0,.12.02.18.02.31.04.62.07.93.1.02,0,.05,0,.07,0-.07-.47-.11-.95-.11-1.43,0-.41.03-.82.08-1.22.36-2.81,1.96-5.24,4.22-6.73.28-.18.57-.35.87-.51.11-.05.21-.11.32-.16,1.21-.56,2.57-.88,4-.88,2.63,0,5.01,1.07,6.73,2.8.41-.07.82-.16,1.21-.26,1.59-.41,3.09-1.06,4.45-1.92-.31.89-.74,1.73-1.29,2.48h0c-.66.91-1.48,1.71-2.42,2.33-.03.02-.05.03-.08.05-.03.02-.06.04-.1.06.04,0,.08,0,.12-.01.02,0,.05,0,.07,0,1.73-.2,3.37-.68,4.88-1.4Z" data-v-0a6223fd=""></path></svg>